<mxfile host="app.diagrams.net" modified="2023-06-12T23:29:13.801Z" agent="Mozilla/5.0 (Windows NT 10.0; Win64; x64) AppleWebKit/537.36 (KHTML, like Gecko) Chrome/114.0.0.0 Safari/537.36" etag="Sov0LYVS1E5GJ_IQmwKF" version="21.3.8" type="device">
  <diagram name="Page-1" id="NmIu27b8Ky-kZdkGyO9K">
    <mxGraphModel dx="2100" dy="1082" grid="1" gridSize="10" guides="1" tooltips="1" connect="1" arrows="1" fold="1" page="1" pageScale="1" pageWidth="850" pageHeight="1100" math="0" shadow="0">
      <root>
        <mxCell id="0" />
        <mxCell id="1" parent="0" />
        <mxCell id="9hbryvkk4MEsae4XETOJ-7" value="&lt;p style=&quot;margin:0px;margin-top:4px;text-align:center;&quot;&gt;&lt;b&gt;Action&lt;/b&gt;&lt;/p&gt;&lt;hr size=&quot;1&quot;&gt;&lt;p style=&quot;margin:0px;margin-left:4px;&quot;&gt;- kind: ActionKind&lt;/p&gt;&lt;p style=&quot;margin:0px;margin-left:4px;&quot;&gt;- entity: Entity&lt;/p&gt;&lt;p style=&quot;margin:0px;margin-left:4px;&quot;&gt;- world: WorldModel&lt;/p&gt;&lt;p style=&quot;margin:0px;margin-left:4px;&quot;&gt;- imageStore: ImageStore&lt;/p&gt;&lt;p style=&quot;margin:0px;margin-left:4px;&quot;&gt;- repeatCount: int&lt;/p&gt;&lt;hr size=&quot;1&quot;&gt;&lt;p style=&quot;margin:0px;margin-left:4px;&quot;&gt;+ executeAction(): void&amp;nbsp;&lt;/p&gt;&lt;p data-darkreader-inline-border=&quot;&quot; style=&quot;border-color: var(--border-color); margin: 0px 0px 0px 4px; --darkreader-inline-border:var(--darkreader-border--border-color);&quot;&gt;+ executeAnimationAction(): void&amp;nbsp;&lt;br data-darkreader-inline-border=&quot;&quot; style=&quot;border-color: var(--border-color); --darkreader-inline-border:var(--darkreader-border--border-color);&quot;&gt;&lt;/p&gt;&lt;p data-darkreader-inline-border=&quot;&quot; style=&quot;border-color: var(--border-color); margin: 0px 0px 0px 4px; --darkreader-inline-border:var(--darkreader-border--border-color);&quot;&gt;+ executeActivityAction(): void&amp;nbsp;&lt;/p&gt;" style="verticalAlign=top;align=left;overflow=fill;fontSize=12;fontFamily=Helvetica;html=1;whiteSpace=wrap;" parent="1" vertex="1">
          <mxGeometry x="730" y="25" width="260" height="195" as="geometry" />
        </mxCell>
        <mxCell id="9hbryvkk4MEsae4XETOJ-9" value="&lt;p style=&quot;margin:0px;margin-top:4px;text-align:center;&quot;&gt;&lt;b&gt;Background&lt;/b&gt;&lt;/p&gt;&lt;hr size=&quot;1&quot;&gt;&lt;p style=&quot;margin:0px;margin-left:4px;&quot;&gt;+ id: String&lt;/p&gt;&lt;p style=&quot;margin:0px;margin-left:4px;&quot;&gt;+ images: List&amp;lt;PImage&amp;gt;&lt;/p&gt;&lt;p style=&quot;margin:0px;margin-left:4px;&quot;&gt;+ imageIndex: int&lt;/p&gt;&lt;hr size=&quot;1&quot;&gt;&lt;p style=&quot;margin:0px;margin-left:4px;&quot;&gt;&lt;br&gt;&lt;/p&gt;" style="verticalAlign=top;align=left;overflow=fill;fontSize=12;fontFamily=Helvetica;html=1;whiteSpace=wrap;" parent="1" vertex="1">
          <mxGeometry x="1040" y="570" width="160" height="140" as="geometry" />
        </mxCell>
        <mxCell id="9hbryvkk4MEsae4XETOJ-10" value="&lt;p style=&quot;margin:0px;margin-top:4px;text-align:center;&quot;&gt;&lt;b&gt;Entity&lt;/b&gt;&lt;/p&gt;&lt;hr size=&quot;1&quot;&gt;&lt;p style=&quot;margin:0px;margin-left:4px;&quot;&gt;- kind: EntityKind&lt;/p&gt;&lt;p style=&quot;margin:0px;margin-left:4px;&quot;&gt;- id: String&lt;/p&gt;&lt;p style=&quot;margin:0px;margin-left:4px;&quot;&gt;- position: Point&lt;/p&gt;&lt;p style=&quot;margin:0px;margin-left:4px;&quot;&gt;- images: List&amp;lt;PImage&amp;gt;&lt;/p&gt;&lt;p style=&quot;margin:0px;margin-left:4px;&quot;&gt;- imageIndex: int&lt;/p&gt;&lt;p style=&quot;margin:0px;margin-left:4px;&quot;&gt;- resourceLimit: int&lt;/p&gt;&lt;p style=&quot;margin:0px;margin-left:4px;&quot;&gt;- resourceCount: int&lt;/p&gt;&lt;p style=&quot;margin:0px;margin-left:4px;&quot;&gt;- actionPeriod: double&lt;/p&gt;&lt;p style=&quot;margin:0px;margin-left:4px;&quot;&gt;- animationPeriod: double&lt;/p&gt;&lt;p style=&quot;margin:0px;margin-left:4px;&quot;&gt;- health: int&lt;/p&gt;&lt;p style=&quot;margin:0px;margin-left:4px;&quot;&gt;- healthLimit: int&lt;/p&gt;&lt;p data-darkreader-inline-border=&quot;&quot; style=&quot;border-color: var(--border-color); margin: 0px 0px 0px 4px; --darkreader-inline-border:var(--darkreader-border--border-color);&quot;&gt;+ SAPLING_ACTION_ANIMATION_PERIOD: double &amp;lt;&amp;lt;static&amp;gt;&amp;gt;&lt;/p&gt;&lt;div&gt;&lt;p data-darkreader-inline-border=&quot;&quot; style=&quot;border-color: var(--border-color); margin: 0px 0px 0px 4px; --darkreader-inline-border:var(--darkreader-border--border-color);&quot;&gt;+ SAPLING_HEALTH_LIMIT: int &amp;lt;&amp;lt;static&amp;gt;&amp;gt;&lt;br data-darkreader-inline-border=&quot;&quot; style=&quot;border-color: var(--border-color); --darkreader-inline-border:var(--darkreader-border--border-color);&quot;&gt;&lt;/p&gt;&lt;/div&gt;&lt;div&gt;&lt;span data-darkreader-inline-border=&quot;&quot; data-darkreader-inline-bgcolor=&quot;&quot; style=&quot;border-color: var(--border-color); background-color: initial; --darkreader-inline-bgcolor: initial; --darkreader-inline-border:var(--darkreader-border--border-color);&quot;&gt;&lt;p data-darkreader-inline-border=&quot;&quot; style=&quot;border-color: var(--border-color); margin: 0px 0px 0px 4px; --darkreader-inline-border:var(--darkreader-border--border-color);&quot;&gt;+ TREE_ANIMATION_MAX: double &amp;lt;&amp;lt;static&amp;gt;&amp;gt;&lt;/p&gt;&lt;p data-darkreader-inline-border=&quot;&quot; style=&quot;border-color: var(--border-color); margin: 0px 0px 0px 4px; --darkreader-inline-border:var(--darkreader-border--border-color);&quot;&gt;+ TREE_ANIMATION_MIN: double &amp;lt;&amp;lt;static&amp;gt;&amp;gt;&lt;/p&gt;&lt;p data-darkreader-inline-border=&quot;&quot; style=&quot;border-color: var(--border-color); margin: 0px 0px 0px 4px; --darkreader-inline-border:var(--darkreader-border--border-color);&quot;&gt;+ TREE_ACTION_MAX: double &amp;lt;&amp;lt;static&amp;gt;&amp;gt;&lt;/p&gt;&lt;p data-darkreader-inline-border=&quot;&quot; style=&quot;border-color: var(--border-color); margin: 0px 0px 0px 4px; --darkreader-inline-border:var(--darkreader-border--border-color);&quot;&gt;+ TREE_ACTION_MIN: double &amp;lt;&amp;lt;static&amp;gt;&amp;gt;&lt;/p&gt;&lt;p data-darkreader-inline-border=&quot;&quot; style=&quot;border-color: var(--border-color); margin: 0px 0px 0px 4px; --darkreader-inline-border:var(--darkreader-border--border-color);&quot;&gt;+ TREE_HEALTH_MAX: int &amp;lt;&amp;lt;static&amp;gt;&amp;gt;&lt;/p&gt;&lt;p data-darkreader-inline-border=&quot;&quot; style=&quot;border-color: var(--border-color); margin: 0px 0px 0px 4px; --darkreader-inline-border:var(--darkreader-border--border-color);&quot;&gt;+ TREE_HEALTH_MIN: int &amp;lt;&amp;lt;static&amp;gt;&amp;gt;&lt;/p&gt;&lt;/span&gt;&lt;/div&gt;&lt;hr size=&quot;1&quot;&gt;&lt;p style=&quot;margin:0px;margin-left:4px;&quot;&gt;&lt;span data-darkreader-inline-bgcolor=&quot;&quot; style=&quot;background-color: initial; --darkreader-inline-bgcolor: initial;&quot;&gt;+ log(): String&lt;/span&gt;&lt;br&gt;&lt;/p&gt;&lt;p data-darkreader-inline-border=&quot;&quot; style=&quot;border-color: var(--border-color); margin: 0px 0px 0px 4px; --darkreader-inline-border:var(--darkreader-border--border-color);&quot;&gt;+ getAnimationPeriod(): double&amp;nbsp;&lt;/p&gt;&lt;p data-darkreader-inline-border=&quot;&quot; style=&quot;border-color: var(--border-color); margin: 0px 0px 0px 4px; --darkreader-inline-border:var(--darkreader-border--border-color);&quot;&gt;+ nextImage(): void&amp;nbsp;&lt;br data-darkreader-inline-border=&quot;&quot; style=&quot;border-color: var(--border-color); --darkreader-inline-border:var(--darkreader-border--border-color);&quot;&gt;&lt;/p&gt;&lt;p data-darkreader-inline-border=&quot;&quot; style=&quot;border-color: var(--border-color); margin: 0px 0px 0px 4px; --darkreader-inline-border:var(--darkreader-border--border-color);&quot;&gt;+ createHouse(): Entity &amp;lt;&amp;lt;static&amp;gt;&amp;gt;&lt;br data-darkreader-inline-border=&quot;&quot; style=&quot;border-color: var(--border-color); --darkreader-inline-border:var(--darkreader-border--border-color);&quot;&gt;&lt;/p&gt;&lt;p data-darkreader-inline-border=&quot;&quot; style=&quot;border-color: var(--border-color); margin: 0px 0px 0px 4px; --darkreader-inline-border:var(--darkreader-border--border-color);&quot;&gt;+ createObstacle(): Entity &amp;lt;&amp;lt;static&amp;gt;&amp;gt;&lt;/p&gt;&lt;p data-darkreader-inline-border=&quot;&quot; style=&quot;border-color: var(--border-color); margin: 0px 0px 0px 4px; --darkreader-inline-border:var(--darkreader-border--border-color);&quot;&gt;+ createTree(): Entity &amp;lt;&amp;lt;static&amp;gt;&amp;gt;&lt;/p&gt;&lt;p data-darkreader-inline-border=&quot;&quot; style=&quot;border-color: var(--border-color); margin: 0px 0px 0px 4px; --darkreader-inline-border:var(--darkreader-border--border-color);&quot;&gt;+ createStump(): Entity &amp;lt;&amp;lt;static&amp;gt;&amp;gt;&lt;/p&gt;&lt;p data-darkreader-inline-border=&quot;&quot; style=&quot;border-color: var(--border-color); margin: 0px 0px 0px 4px; --darkreader-inline-border:var(--darkreader-border--border-color);&quot;&gt;+ createSapling(): Entity &amp;lt;&amp;lt;static&amp;gt;&amp;gt;&lt;/p&gt;&lt;p data-darkreader-inline-border=&quot;&quot; style=&quot;border-color: var(--border-color); margin: 0px 0px 0px 4px; --darkreader-inline-border:var(--darkreader-border--border-color);&quot;&gt;+ createFairy(): Entity &amp;lt;&amp;lt;static&amp;gt;&amp;gt;&lt;/p&gt;&lt;p data-darkreader-inline-border=&quot;&quot; style=&quot;border-color: var(--border-color); margin: 0px 0px 0px 4px; --darkreader-inline-border:var(--darkreader-border--border-color);&quot;&gt;+ createDudeNotFull(): Entity &amp;lt;&amp;lt;static&amp;gt;&amp;gt;&lt;/p&gt;&lt;p data-darkreader-inline-border=&quot;&quot; style=&quot;border-color: var(--border-color); margin: 0px 0px 0px 4px; --darkreader-inline-border:var(--darkreader-border--border-color);&quot;&gt;+ createDudeFull(): Entity &amp;lt;&amp;lt;static&amp;gt;&amp;gt;&lt;/p&gt;&lt;p data-darkreader-inline-border=&quot;&quot; style=&quot;border-color: var(--border-color); margin: 0px 0px 0px 4px; --darkreader-inline-border:var(--darkreader-border--border-color);&quot;&gt;+ executeSaplingActivity(): void&amp;nbsp;&lt;br data-darkreader-inline-border=&quot;&quot; style=&quot;border-color: var(--border-color); --darkreader-inline-border:var(--darkreader-border--border-color);&quot;&gt;&lt;/p&gt;&lt;p data-darkreader-inline-border=&quot;&quot; style=&quot;border-color: var(--border-color); margin: 0px 0px 0px 4px; --darkreader-inline-border:var(--darkreader-border--border-color);&quot;&gt;+ executeTreeActivity(): void&lt;/p&gt;&lt;p data-darkreader-inline-border=&quot;&quot; style=&quot;border-color: var(--border-color); margin: 0px 0px 0px 4px; --darkreader-inline-border:var(--darkreader-border--border-color);&quot;&gt;+ executeFairyActivity(): void&amp;nbsp;&lt;/p&gt;&lt;p data-darkreader-inline-border=&quot;&quot; style=&quot;border-color: var(--border-color); margin: 0px 0px 0px 4px; --darkreader-inline-border:var(--darkreader-border--border-color);&quot;&gt;+ executeDudeNotFullActivity(): void&amp;nbsp;&lt;/p&gt;&lt;p data-darkreader-inline-border=&quot;&quot; style=&quot;border-color: var(--border-color); margin: 0px 0px 0px 4px; --darkreader-inline-border:var(--darkreader-border--border-color);&quot;&gt;+ executeDudeFullActivity(): void&amp;nbsp;&lt;/p&gt;&lt;p data-darkreader-inline-border=&quot;&quot; style=&quot;border-color: var(--border-color); margin: 0px 0px 0px 4px; --darkreader-inline-border:var(--darkreader-border--border-color);&quot;&gt;+ scheduleActions(): void&amp;nbsp;&lt;/p&gt;&lt;p data-darkreader-inline-border=&quot;&quot; style=&quot;border-color: var(--border-color); margin: 0px 0px 0px 4px; --darkreader-inline-border:var(--darkreader-border--border-color);&quot;&gt;&lt;span data-darkreader-inline-color=&quot;&quot; data-darkreader-inline-bgcolor=&quot;&quot; style=&quot;background-color: initial; color: rgb(0, 0, 0); --darkreader-inline-bgcolor: initial; --darkreader-inline-color:#e8e6e3;&quot;&gt;+ transformNotFull(): boolean&amp;nbsp;&lt;/span&gt;&lt;br&gt;&lt;/p&gt;&lt;p data-darkreader-inline-border=&quot;&quot; style=&quot;border-color: var(--border-color); margin: 0px 0px 0px 4px; --darkreader-inline-border:var(--darkreader-border--border-color);&quot;&gt;+ transformFull(): void&amp;nbsp;&lt;/p&gt;&lt;p data-darkreader-inline-border=&quot;&quot; style=&quot;border-color: var(--border-color); margin: 0px 0px 0px 4px; --darkreader-inline-border:var(--darkreader-border--border-color);&quot;&gt;+ transformPlant(): boolean&amp;nbsp;&lt;/p&gt;&lt;p data-darkreader-inline-border=&quot;&quot; style=&quot;border-color: var(--border-color); margin: 0px 0px 0px 4px; --darkreader-inline-border:var(--darkreader-border--border-color);&quot;&gt;+ transformTree(): boolean&amp;nbsp;&lt;/p&gt;&lt;p data-darkreader-inline-border=&quot;&quot; style=&quot;border-color: var(--border-color); margin: 0px 0px 0px 4px; --darkreader-inline-border:var(--darkreader-border--border-color);&quot;&gt;+ transformSapling(): boolean&lt;/p&gt;&lt;p data-darkreader-inline-border=&quot;&quot; style=&quot;border-color: var(--border-color); margin: 0px 0px 0px 4px; --darkreader-inline-border:var(--darkreader-border--border-color);&quot;&gt;+ moveToFairy(): boolean&amp;nbsp;&lt;/p&gt;&lt;p data-darkreader-inline-border=&quot;&quot; style=&quot;border-color: var(--border-color); margin: 0px 0px 0px 4px; --darkreader-inline-border:var(--darkreader-border--border-color);&quot;&gt;+ moveToNotFull(): boolean&amp;nbsp;&lt;/p&gt;&lt;p data-darkreader-inline-border=&quot;&quot; style=&quot;border-color: var(--border-color); margin: 0px 0px 0px 4px; --darkreader-inline-border:var(--darkreader-border--border-color);&quot;&gt;+ moveToFull(): boolean&amp;nbsp;&lt;/p&gt;&lt;p data-darkreader-inline-border=&quot;&quot; style=&quot;border-color: var(--border-color); margin: 0px 0px 0px 4px; --darkreader-inline-border:var(--darkreader-border--border-color);&quot;&gt;+ NextPositionFairy(): Point&amp;nbsp;&lt;/p&gt;&lt;p style=&quot;border-color: var(--border-color); margin: 0px 0px 0px 4px; --darkreader-inline-border:var(--darkreader-border--border-color);&quot; data-darkreader-inline-border=&quot;&quot;&gt;+ nextPositionDude(): Point&amp;nbsp;&lt;/p&gt;&lt;p data-darkreader-inline-border=&quot;&quot; style=&quot;border-color: var(--border-color); margin: 0px 0px 0px 4px; --darkreader-inline-border:var(--darkreader-border--border-color);&quot;&gt;+ createAnimationAction(): Action&amp;nbsp;&lt;/p&gt;&lt;p data-darkreader-inline-border=&quot;&quot; style=&quot;border-color: var(--border-color); margin: 0px 0px 0px 4px; --darkreader-inline-border:var(--darkreader-border--border-color);&quot;&gt;+ createActivityAction(): Action&amp;nbsp;&lt;/p&gt;&lt;p data-darkreader-inline-border=&quot;&quot; style=&quot;border-color: var(--darkreader-border--border-color); margin: 0px 0px 0px 4px; --darkreader-inline-border:var(--darkreader-border--darkreader-border--border-color);&quot;&gt;+ getIntFromRange(): int&amp;nbsp;&lt;br data-darkreader-inline-border=&quot;&quot; style=&quot;border-color: var(--darkreader-border--border-color); --darkreader-inline-border:var(--darkreader-border--darkreader-border--border-color);&quot;&gt;&lt;/p&gt;&lt;p data-darkreader-inline-border=&quot;&quot; style=&quot;border-color: var(--darkreader-border--border-color); margin: 0px 0px 0px 4px; --darkreader-inline-border:var(--darkreader-border--darkreader-border--border-color);&quot;&gt;+ getNumFromRange(): double&amp;nbsp;&lt;/p&gt;&lt;p data-darkreader-inline-border=&quot;&quot; style=&quot;border-color: var(--border-color); margin: 0px 0px 0px 4px; --darkreader-inline-border:var(--darkreader-border--border-color);&quot;&gt;+ getKind(): EntityKind&lt;/p&gt;&lt;p data-darkreader-inline-border=&quot;&quot; style=&quot;border-color: var(--border-color); margin: 0px 0px 0px 4px; --darkreader-inline-border:var(--darkreader-border--border-color);&quot;&gt;+ getId(): String&lt;/p&gt;&lt;p data-darkreader-inline-border=&quot;&quot; style=&quot;border-color: var(--border-color); margin: 0px 0px 0px 4px; --darkreader-inline-border:var(--darkreader-border--border-color);&quot;&gt;+ getPosition(): Point&lt;/p&gt;&lt;p data-darkreader-inline-border=&quot;&quot; style=&quot;border-color: var(--border-color); margin: 0px 0px 0px 4px; --darkreader-inline-border:var(--darkreader-border--border-color);&quot;&gt;+ setPosition(): void&lt;/p&gt;&lt;p data-darkreader-inline-border=&quot;&quot; style=&quot;border-color: var(--border-color); margin: 0px 0px 0px 4px; --darkreader-inline-border:var(--darkreader-border--border-color);&quot;&gt;+ getImages(): List&amp;lt;PImage&amp;gt;&lt;/p&gt;&lt;p data-darkreader-inline-border=&quot;&quot; style=&quot;border-color: var(--border-color); margin: 0px 0px 0px 4px; --darkreader-inline-border:var(--darkreader-border--border-color);&quot;&gt;+ getImageIndex(): int&lt;/p&gt;&lt;p data-darkreader-inline-border=&quot;&quot; style=&quot;border-color: var(--border-color); margin: 0px 0px 0px 4px; --darkreader-inline-border:var(--darkreader-border--border-color);&quot;&gt;+ getHealth(): int&lt;/p&gt;&lt;p data-darkreader-inline-border=&quot;&quot; style=&quot;border-color: var(--border-color); margin: 0px 0px 0px 4px; --darkreader-inline-border:var(--darkreader-border--border-color);&quot;&gt;&lt;br&gt;&lt;/p&gt;&lt;p data-darkreader-inline-border=&quot;&quot; style=&quot;border-color: var(--border-color); margin: 0px 0px 0px 4px; --darkreader-inline-border:var(--darkreader-border--border-color);&quot;&gt;&lt;br&gt;&lt;/p&gt;&lt;div&gt;&lt;br&gt;&lt;/div&gt;&lt;div&gt;&lt;span data-darkreader-inline-border=&quot;&quot; data-darkreader-inline-bgcolor=&quot;&quot; style=&quot;border-color: var(--border-color); background-color: initial; --darkreader-inline-bgcolor: initial; --darkreader-inline-border:var(--darkreader-border--border-color);&quot;&gt;&lt;br&gt;&lt;/span&gt;&lt;/div&gt;&lt;div&gt;&lt;br&gt;&lt;/div&gt;" style="verticalAlign=top;align=left;overflow=fill;fontSize=12;fontFamily=Helvetica;html=1;whiteSpace=wrap;" parent="1" vertex="1">
          <mxGeometry x="350" y="25" width="310" height="895" as="geometry" />
        </mxCell>
        <mxCell id="9hbryvkk4MEsae4XETOJ-11" value="&lt;p style=&quot;margin:0px;margin-top:4px;text-align:center;&quot;&gt;&lt;b&gt;Event&lt;/b&gt;&lt;/p&gt;&lt;hr size=&quot;1&quot;&gt;&lt;p style=&quot;margin:0px;margin-left:4px;&quot;&gt;+ action: Action&lt;/p&gt;&lt;p style=&quot;margin:0px;margin-left:4px;&quot;&gt;+ time: double&lt;/p&gt;&lt;p style=&quot;margin:0px;margin-left:4px;&quot;&gt;+ entity: Entity&lt;/p&gt;&lt;hr size=&quot;1&quot;&gt;&lt;p style=&quot;margin:0px;margin-left:4px;&quot;&gt;&lt;br&gt;&lt;/p&gt;" style="verticalAlign=top;align=left;overflow=fill;fontSize=12;fontFamily=Helvetica;html=1;whiteSpace=wrap;" parent="1" vertex="1">
          <mxGeometry x="1040" y="725" width="180" height="140" as="geometry" />
        </mxCell>
        <mxCell id="9hbryvkk4MEsae4XETOJ-12" value="&lt;p style=&quot;margin:0px;margin-top:4px;text-align:center;&quot;&gt;&lt;b&gt;EventScheduler&lt;/b&gt;&lt;/p&gt;&lt;hr size=&quot;1&quot;&gt;&lt;p style=&quot;margin:0px;margin-left:4px;&quot;&gt;- eventQueue: PriorityQueue&amp;lt;Event&amp;gt;&lt;/p&gt;&lt;p style=&quot;margin:0px;margin-left:4px;&quot;&gt;- pendingEvents: Map&amp;lt;Entity, List&amp;lt;Event&amp;gt;&amp;gt;&lt;/p&gt;&lt;p style=&quot;margin:0px;margin-left:4px;&quot;&gt;- currentTime: double&lt;/p&gt;&lt;hr size=&quot;1&quot;&gt;&lt;p data-darkreader-inline-border=&quot;&quot; style=&quot;border-color: var(--border-color); margin: 0px 0px 0px 4px; --darkreader-inline-border:var(--darkreader-border--border-color);&quot;&gt;&lt;span data-darkreader-inline-bgcolor=&quot;&quot; style=&quot;background-color: initial; --darkreader-inline-bgcolor: initial;&quot;&gt;+ unscheduleAllEvents(): void&amp;nbsp;&lt;/span&gt;&lt;br&gt;&lt;/p&gt;&lt;p data-darkreader-inline-border=&quot;&quot; style=&quot;border-color: var(--border-color); margin: 0px 0px 0px 4px; --darkreader-inline-border:var(--darkreader-border--border-color);&quot;&gt;+ removePendingEvent(): void&amp;nbsp;&lt;/p&gt;&lt;p data-darkreader-inline-border=&quot;&quot; style=&quot;border-color: var(--border-color); margin: 0px 0px 0px 4px; --darkreader-inline-border:var(--darkreader-border--border-color);&quot;&gt;+ updateOnTime(): void&amp;nbsp;&lt;/p&gt;&lt;p style=&quot;border-color: var(--border-color); margin: 0px 0px 0px 4px; --darkreader-inline-border:var(--darkreader-border--border-color);&quot; data-darkreader-inline-border=&quot;&quot;&gt;+ scheduleEvent(): void&amp;nbsp;&lt;/p&gt;&lt;p style=&quot;border-color: var(--border-color); margin: 0px 0px 0px 4px; --darkreader-inline-border:var(--darkreader-border--border-color);&quot; data-darkreader-inline-border=&quot;&quot;&gt;+ getCurrentTime(): double&lt;/p&gt;&lt;div&gt;&lt;br&gt;&lt;/div&gt;" style="verticalAlign=top;align=left;overflow=fill;fontSize=12;fontFamily=Helvetica;html=1;whiteSpace=wrap;" parent="1" vertex="1">
          <mxGeometry x="730" y="230" width="260" height="190" as="geometry" />
        </mxCell>
        <mxCell id="gX_O8HxxF5ZgTLednci5-2" value="&lt;p style=&quot;margin:0px;margin-top:4px;text-align:center;&quot;&gt;&lt;b&gt;ImageStore&lt;/b&gt;&lt;/p&gt;&lt;hr size=&quot;1&quot;&gt;&lt;p style=&quot;margin:0px;margin-left:4px;&quot;&gt;- images: Map&amp;lt;String, List&amp;lt;Pimage&amp;gt;&amp;gt;&lt;/p&gt;&lt;p style=&quot;margin:0px;margin-left:4px;&quot;&gt;- defaultImages: List&amp;lt;PImage&amp;gt;&lt;/p&gt;&lt;p data-darkreader-inline-border=&quot;&quot; style=&quot;border-color: var(--border-color); margin: 0px 0px 0px 4px; --darkreader-inline-border:var(--darkreader-border--border-color);&quot;&gt;+ COLOR_MASK: int &amp;lt;&amp;lt;static&amp;gt;&amp;gt;&lt;/p&gt;&lt;p data-darkreader-inline-border=&quot;&quot; style=&quot;border-color: var(--border-color); margin: 0px 0px 0px 4px; --darkreader-inline-border:var(--darkreader-border--border-color);&quot;&gt;+ KEYED_IMAGE_MIN: int &amp;lt;&amp;lt;static&amp;gt;&amp;gt;&lt;br data-darkreader-inline-border=&quot;&quot; style=&quot;border-color: var(--border-color); --darkreader-inline-border:var(--darkreader-border--border-color);&quot;&gt;&lt;/p&gt;&lt;div&gt;&lt;span data-darkreader-inline-border=&quot;&quot; data-darkreader-inline-bgcolor=&quot;&quot; style=&quot;border-color: var(--border-color); background-color: initial; --darkreader-inline-bgcolor: initial; --darkreader-inline-border:var(--darkreader-border--border-color);&quot;&gt;&lt;p data-darkreader-inline-border=&quot;&quot; style=&quot;border-color: var(--border-color); margin: 0px 0px 0px 4px; --darkreader-inline-border:var(--darkreader-border--border-color);&quot;&gt;+ KEYED_RED_IDX: int &amp;lt;&amp;lt;static&amp;gt;&amp;gt;&lt;br data-darkreader-inline-border=&quot;&quot; style=&quot;border-color: var(--border-color); --darkreader-inline-border:var(--darkreader-border--border-color);&quot;&gt;&lt;/p&gt;&lt;p data-darkreader-inline-border=&quot;&quot; style=&quot;border-color: var(--border-color); margin: 0px 0px 0px 4px; --darkreader-inline-border:var(--darkreader-border--border-color);&quot;&gt;+ KEYED_GREEN_IDX: int &amp;lt;&amp;lt;static&amp;gt;&amp;gt;&lt;/p&gt;&lt;p data-darkreader-inline-border=&quot;&quot; style=&quot;border-color: var(--border-color); margin: 0px 0px 0px 4px; --darkreader-inline-border:var(--darkreader-border--border-color);&quot;&gt;+ KEYED_BLUE_IDX: int &amp;lt;&amp;lt;static&amp;gt;&amp;gt;&lt;/p&gt;&lt;/span&gt;&lt;/div&gt;&lt;hr size=&quot;1&quot;&gt;&lt;p data-darkreader-inline-border=&quot;&quot; style=&quot;border-color: var(--border-color); margin: 0px 0px 0px 4px; --darkreader-inline-border:var(--darkreader-border--border-color);&quot;&gt;+ getImageList(): List&amp;lt;PImage&amp;gt;&amp;nbsp;&lt;/p&gt;&lt;p data-darkreader-inline-border=&quot;&quot; style=&quot;border-color: var(--border-color); margin: 0px 0px 0px 4px; --darkreader-inline-border:var(--darkreader-border--border-color);&quot;&gt;+ loadImages(): void&amp;nbsp;&lt;/p&gt;&lt;p data-darkreader-inline-border=&quot;&quot; style=&quot;border-color: var(--border-color); margin: 0px 0px 0px 4px; --darkreader-inline-border:var(--darkreader-border--border-color);&quot;&gt;+ getImages(): List&amp;lt;PImage&amp;gt;&amp;nbsp;&lt;/p&gt;&lt;p data-darkreader-inline-border=&quot;&quot; style=&quot;border-color: var(--border-color); margin: 0px 0px 0px 4px; --darkreader-inline-border:var(--darkreader-border--border-color);&quot;&gt;+ processImageLine(): void&amp;nbsp;&lt;br data-darkreader-inline-border=&quot;&quot; style=&quot;border-color: var(--border-color); --darkreader-inline-border:var(--darkreader-border--border-color);&quot;&gt;&lt;/p&gt;&lt;div&gt;&lt;span data-darkreader-inline-border=&quot;&quot; data-darkreader-inline-bgcolor=&quot;&quot; style=&quot;border-color: var(--border-color); background-color: initial; --darkreader-inline-bgcolor: initial; --darkreader-inline-border:var(--darkreader-border--border-color);&quot;&gt;&amp;nbsp;+ setAlpha(): void&amp;nbsp;&lt;/span&gt;&lt;/div&gt;" style="verticalAlign=top;align=left;overflow=fill;fontSize=12;fontFamily=Helvetica;html=1;whiteSpace=wrap;" parent="1" vertex="1">
          <mxGeometry x="1040" y="25" width="220" height="265" as="geometry" />
        </mxCell>
        <mxCell id="gX_O8HxxF5ZgTLednci5-3" value="&lt;p style=&quot;margin:0px;margin-top:4px;text-align:center;&quot;&gt;&lt;b&gt;Point&lt;/b&gt;&lt;/p&gt;&lt;hr size=&quot;1&quot;&gt;&lt;p style=&quot;margin:0px;margin-left:4px;&quot;&gt;+ x: int&lt;/p&gt;&lt;p style=&quot;margin:0px;margin-left:4px;&quot;&gt;+ y: int&lt;/p&gt;&lt;hr size=&quot;1&quot;&gt;&lt;p style=&quot;margin:0px;margin-left:4px;&quot;&gt;+ toString(): String&amp;nbsp;&lt;/p&gt;&lt;p style=&quot;margin:0px;margin-left:4px;&quot;&gt;+ equals(): boolean&lt;/p&gt;&lt;p style=&quot;margin:0px;margin-left:4px;&quot;&gt;+ hashCode(): int&lt;/p&gt;&lt;p style=&quot;border-color: var(--border-color); margin: 0px 0px 0px 4px;&quot;&gt;+ adjacent(): boolean &amp;lt;&amp;lt;static&amp;gt;&amp;gt;&lt;br style=&quot;border-color: var(--border-color);&quot;&gt;&lt;/p&gt;&lt;p style=&quot;border-color: var(--border-color); margin: 0px 0px 0px 4px;&quot;&gt;+ distanceSquared(): int &amp;lt;&amp;lt;static&amp;gt;&amp;gt;&lt;/p&gt;&lt;p style=&quot;border-color: var(--border-color); margin: 0px 0px 0px 4px;&quot;&gt;&lt;br&gt;&lt;/p&gt;&lt;div&gt;&lt;span style=&quot;border-color: var(--border-color); background-color: initial;&quot;&gt;&lt;br&gt;&lt;/span&gt;&lt;/div&gt;&lt;div&gt;&lt;span style=&quot;border-color: var(--border-color); background-color: initial;&quot;&gt;&lt;br&gt;&lt;/span&gt;&lt;/div&gt;" style="verticalAlign=top;align=left;overflow=fill;fontSize=12;fontFamily=Helvetica;html=1;whiteSpace=wrap;" parent="1" vertex="1">
          <mxGeometry x="730" y="430" width="260" height="150" as="geometry" />
        </mxCell>
        <mxCell id="gX_O8HxxF5ZgTLednci5-4" value="&lt;p style=&quot;margin:0px;margin-top:4px;text-align:center;&quot;&gt;&lt;b&gt;Viewport&lt;/b&gt;&lt;/p&gt;&lt;hr size=&quot;1&quot;&gt;&lt;p style=&quot;margin:0px;margin-left:4px;&quot;&gt;- row: int&lt;/p&gt;&lt;p style=&quot;margin:0px;margin-left:4px;&quot;&gt;- col: int&lt;/p&gt;&lt;p style=&quot;margin:0px;margin-left:4px;&quot;&gt;- numRows: int&lt;/p&gt;&lt;p style=&quot;margin:0px;margin-left:4px;&quot;&gt;- numCols: int&lt;/p&gt;&lt;hr size=&quot;1&quot;&gt;&lt;p data-darkreader-inline-border=&quot;&quot; style=&quot;border-color: var(--border-color); margin: 0px 0px 0px 4px; --darkreader-inline-border:var(--darkreader-border--border-color);&quot;&gt;+ viewportToWorld(): Point&amp;nbsp;&lt;/p&gt;&lt;p data-darkreader-inline-border=&quot;&quot; style=&quot;border-color: var(--border-color); margin: 0px 0px 0px 4px; --darkreader-inline-border:var(--darkreader-border--border-color);&quot;&gt;+ worldToViewport(): Point&amp;nbsp;&lt;/p&gt;&lt;p data-darkreader-inline-border=&quot;&quot; style=&quot;border-color: var(--border-color); margin: 0px 0px 0px 4px; --darkreader-inline-border:var(--darkreader-border--border-color);&quot;&gt;+ shift(): void&amp;nbsp;&lt;/p&gt;&lt;p data-darkreader-inline-border=&quot;&quot; style=&quot;border-color: var(--border-color); margin: 0px 0px 0px 4px; --darkreader-inline-border:var(--darkreader-border--border-color);&quot;&gt;+ contains(): boolean&amp;nbsp;&lt;/p&gt;&lt;p data-darkreader-inline-border=&quot;&quot; style=&quot;border-color: var(--border-color); margin: 0px 0px 0px 4px; --darkreader-inline-border:var(--darkreader-border--border-color);&quot;&gt;&lt;br&gt;&lt;/p&gt;&lt;p data-darkreader-inline-border=&quot;&quot; style=&quot;border-color: var(--border-color); margin: 0px 0px 0px 4px; --darkreader-inline-border:var(--darkreader-border--border-color);&quot;&gt;+ getRow(): row&lt;/p&gt;&lt;p data-darkreader-inline-border=&quot;&quot; style=&quot;border-color: var(--border-color); margin: 0px 0px 0px 4px; --darkreader-inline-border:var(--darkreader-border--border-color);&quot;&gt;+ getCol(): col&lt;/p&gt;&lt;p data-darkreader-inline-border=&quot;&quot; style=&quot;border-color: var(--border-color); margin: 0px 0px 0px 4px; --darkreader-inline-border:var(--darkreader-border--border-color);&quot;&gt;+ getNumRows(): numRows&lt;/p&gt;&lt;p data-darkreader-inline-border=&quot;&quot; style=&quot;border-color: var(--border-color); margin: 0px 0px 0px 4px; --darkreader-inline-border:var(--darkreader-border--border-color);&quot;&gt;+ getNumCols(): numCols&lt;/p&gt;&lt;p data-darkreader-inline-border=&quot;&quot; style=&quot;border-color: var(--border-color); margin: 0px 0px 0px 4px; --darkreader-inline-border:var(--darkreader-border--border-color);&quot;&gt;&lt;br&gt;&lt;/p&gt;&lt;div&gt;&lt;span data-darkreader-inline-border=&quot;&quot; data-darkreader-inline-bgcolor=&quot;&quot; style=&quot;border-color: var(--border-color); background-color: initial; --darkreader-inline-bgcolor: initial; --darkreader-inline-border:var(--darkreader-border--border-color);&quot;&gt;&lt;br&gt;&lt;/span&gt;&lt;/div&gt;&lt;div&gt;&lt;br&gt;&lt;/div&gt;" style="verticalAlign=top;align=left;overflow=fill;fontSize=12;fontFamily=Helvetica;html=1;whiteSpace=wrap;" parent="1" vertex="1">
          <mxGeometry x="1040" y="315" width="220" height="230" as="geometry" />
        </mxCell>
        <mxCell id="gX_O8HxxF5ZgTLednci5-5" value="&lt;p style=&quot;margin:0px;margin-top:4px;text-align:center;&quot;&gt;&lt;b&gt;WorldModel&lt;/b&gt;&lt;/p&gt;&lt;hr size=&quot;1&quot;&gt;&lt;p style=&quot;margin:0px;margin-left:4px;&quot;&gt;- numRows: int&lt;/p&gt;&lt;p style=&quot;margin:0px;margin-left:4px;&quot;&gt;- numCols: int&lt;/p&gt;&lt;p style=&quot;margin:0px;margin-left:4px;&quot;&gt;- background: Background[][]&lt;/p&gt;&lt;p style=&quot;margin:0px;margin-left:4px;&quot;&gt;- occupancy: Entity[][]&lt;/p&gt;&lt;p style=&quot;margin:0px;margin-left:4px;&quot;&gt;- entities: Set&amp;lt;Entity&amp;gt;&lt;/p&gt;&lt;p data-darkreader-inline-border=&quot;&quot; style=&quot;border-color: var(--border-color); margin: 0px 0px 0px 4px; --darkreader-inline-border:var(--darkreader-border--border-color);&quot;&gt;+ PROPERTY_KEY: int &amp;lt;&amp;lt;static&amp;gt;&amp;gt;&lt;br data-darkreader-inline-border=&quot;&quot; style=&quot;border-color: var(--border-color); --darkreader-inline-border:var(--darkreader-border--border-color);&quot;&gt;&lt;/p&gt;&lt;p data-darkreader-inline-border=&quot;&quot; style=&quot;border-color: var(--border-color); margin: 0px 0px 0px 4px; --darkreader-inline-border:var(--darkreader-border--border-color);&quot;&gt;+ PROPERTY_ID: int &amp;lt;&amp;lt;static&amp;gt;&amp;gt;&lt;/p&gt;&lt;p data-darkreader-inline-border=&quot;&quot; style=&quot;border-color: var(--border-color); margin: 0px 0px 0px 4px; --darkreader-inline-border:var(--darkreader-border--border-color);&quot;&gt;+ PROPERTY_COL: int &amp;lt;&amp;lt;static&amp;gt;&amp;gt;&lt;/p&gt;&lt;p data-darkreader-inline-border=&quot;&quot; style=&quot;border-color: var(--border-color); margin: 0px 0px 0px 4px; --darkreader-inline-border:var(--darkreader-border--border-color);&quot;&gt;+ PROPERTY_ROW: int &amp;lt;&amp;lt;static&amp;gt;&amp;gt;&lt;/p&gt;&lt;p data-darkreader-inline-border=&quot;&quot; style=&quot;border-color: var(--border-color); margin: 0px 0px 0px 4px; --darkreader-inline-border:var(--darkreader-border--border-color);&quot;&gt;+ ENTITY_NUM_PROPERTIES: int &amp;lt;&amp;lt;static&amp;gt;&amp;gt;&lt;/p&gt;&lt;p data-darkreader-inline-border=&quot;&quot; style=&quot;border-color: var(--border-color); margin: 0px 0px 0px 4px; --darkreader-inline-border:var(--darkreader-border--border-color);&quot;&gt;+ STUMP_KEY: String &amp;lt;&amp;lt;static&amp;gt;&amp;gt;&lt;/p&gt;&lt;p data-darkreader-inline-border=&quot;&quot; style=&quot;border-color: var(--border-color); margin: 0px 0px 0px 4px; --darkreader-inline-border:var(--darkreader-border--border-color);&quot;&gt;+ STUMP_NUM_PROPERTIES: int &amp;lt;&amp;lt;static&amp;gt;&amp;gt;&lt;/p&gt;&lt;p data-darkreader-inline-border=&quot;&quot; style=&quot;border-color: var(--border-color); margin: 0px 0px 0px 4px; --darkreader-inline-border:var(--darkreader-border--border-color);&quot;&gt;+ SAMPLING_KEY: String &amp;lt;&amp;lt;static&amp;gt;&amp;gt;&lt;/p&gt;&lt;p data-darkreader-inline-border=&quot;&quot; style=&quot;border-color: var(--border-color); margin: 0px 0px 0px 4px; --darkreader-inline-border:var(--darkreader-border--border-color);&quot;&gt;+ SAMPLING_HEALTH: int &amp;lt;&amp;lt;static&amp;gt;&amp;gt;&lt;/p&gt;&lt;p data-darkreader-inline-border=&quot;&quot; style=&quot;border-color: var(--border-color); margin: 0px 0px 0px 4px; --darkreader-inline-border:var(--darkreader-border--border-color);&quot;&gt;+ SAPLING_NUM_PROPERTIES: int &amp;lt;&amp;lt;static&amp;gt;&amp;gt;&lt;/p&gt;&lt;p data-darkreader-inline-border=&quot;&quot; style=&quot;border-color: var(--border-color); margin: 0px 0px 0px 4px; --darkreader-inline-border:var(--darkreader-border--border-color);&quot;&gt;+ OBSTACLE_KEY: String &amp;lt;&amp;lt;static&amp;gt;&amp;gt;&lt;/p&gt;&lt;p data-darkreader-inline-border=&quot;&quot; style=&quot;border-color: var(--border-color); margin: 0px 0px 0px 4px; --darkreader-inline-border:var(--darkreader-border--border-color);&quot;&gt;+ OBSTACLE_ANIMATION_PERIOD: int &amp;lt;&amp;lt;static&amp;gt;&amp;gt;&lt;/p&gt;&lt;p data-darkreader-inline-border=&quot;&quot; style=&quot;border-color: var(--border-color); margin: 0px 0px 0px 4px; --darkreader-inline-border:var(--darkreader-border--border-color);&quot;&gt;+ OBSTACLE_NUM_PROPERTIES: int &amp;lt;&amp;lt;static&amp;gt;&amp;gt;&lt;/p&gt;&lt;p data-darkreader-inline-border=&quot;&quot; style=&quot;border-color: var(--border-color); margin: 0px 0px 0px 4px; --darkreader-inline-border:var(--darkreader-border--border-color);&quot;&gt;+ DUDE_KEY: String &amp;lt;&amp;lt;static&amp;gt;&amp;gt;&lt;/p&gt;&lt;p data-darkreader-inline-border=&quot;&quot; style=&quot;border-color: var(--border-color); margin: 0px 0px 0px 4px; --darkreader-inline-border:var(--darkreader-border--border-color);&quot;&gt;+ DUDE_ACTION_PERIOD: int &amp;lt;&amp;lt;static&amp;gt;&amp;gt;&lt;/p&gt;&lt;p data-darkreader-inline-border=&quot;&quot; style=&quot;border-color: var(--border-color); margin: 0px 0px 0px 4px; --darkreader-inline-border:var(--darkreader-border--border-color);&quot;&gt;+ DUDE_ANIMATION_PERIOD: int &amp;lt;&amp;lt;static&amp;gt;&amp;gt;&lt;/p&gt;&lt;p data-darkreader-inline-border=&quot;&quot; style=&quot;border-color: var(--border-color); margin: 0px 0px 0px 4px; --darkreader-inline-border:var(--darkreader-border--border-color);&quot;&gt;+ DUDE_LIMIT: int &amp;lt;&amp;lt;static&amp;gt;&amp;gt;&lt;/p&gt;&lt;p data-darkreader-inline-border=&quot;&quot; style=&quot;border-color: var(--border-color); margin: 0px 0px 0px 4px; --darkreader-inline-border:var(--darkreader-border--border-color);&quot;&gt;+ DUDE_NUM_PROPERTIES: int &amp;lt;&amp;lt;static&amp;gt;&amp;gt;&lt;/p&gt;&lt;p data-darkreader-inline-border=&quot;&quot; style=&quot;border-color: var(--border-color); margin: 0px 0px 0px 4px; --darkreader-inline-border:var(--darkreader-border--border-color);&quot;&gt;+ HOUSE_KEY: String &amp;lt;&amp;lt;static&amp;gt;&amp;gt;&lt;/p&gt;&lt;p data-darkreader-inline-border=&quot;&quot; style=&quot;border-color: var(--border-color); margin: 0px 0px 0px 4px; --darkreader-inline-border:var(--darkreader-border--border-color);&quot;&gt;+ HOUSE_NUM_PROPERTIES: int &amp;lt;&amp;lt;static&amp;gt;&amp;gt;&lt;/p&gt;&lt;p data-darkreader-inline-border=&quot;&quot; style=&quot;border-color: var(--border-color); margin: 0px 0px 0px 4px; --darkreader-inline-border:var(--darkreader-border--border-color);&quot;&gt;+ FAIRY_KEY: String &amp;lt;&amp;lt;static&amp;gt;&amp;gt;&lt;/p&gt;&lt;p data-darkreader-inline-border=&quot;&quot; style=&quot;border-color: var(--border-color); margin: 0px 0px 0px 4px; --darkreader-inline-border:var(--darkreader-border--border-color);&quot;&gt;+ FAIRY_ANIMATION_PERIOD: int &amp;lt;&amp;lt;static&amp;gt;&amp;gt;&lt;/p&gt;&lt;p data-darkreader-inline-border=&quot;&quot; style=&quot;border-color: var(--border-color); margin: 0px 0px 0px 4px; --darkreader-inline-border:var(--darkreader-border--border-color);&quot;&gt;+ FAIRY_ACTION_PERIOD: int &amp;lt;&amp;lt;static&amp;gt;&amp;gt;&lt;/p&gt;&lt;p data-darkreader-inline-border=&quot;&quot; style=&quot;border-color: var(--border-color); margin: 0px 0px 0px 4px; --darkreader-inline-border:var(--darkreader-border--border-color);&quot;&gt;+ FAIRY_NUM_PROPERTIES: int &amp;lt;&amp;lt;static&amp;gt;&amp;gt;&lt;/p&gt;&lt;p data-darkreader-inline-border=&quot;&quot; style=&quot;border-color: var(--border-color); margin: 0px 0px 0px 4px; --darkreader-inline-border:var(--darkreader-border--border-color);&quot;&gt;+ TREE_KEY: String &amp;lt;&amp;lt;static&amp;gt;&amp;gt;&lt;/p&gt;&lt;p data-darkreader-inline-border=&quot;&quot; style=&quot;border-color: var(--border-color); margin: 0px 0px 0px 4px; --darkreader-inline-border:var(--darkreader-border--border-color);&quot;&gt;+ TREE_ANIMATION_PERIOD: int &amp;lt;&amp;lt;static&amp;gt;&amp;gt;&lt;/p&gt;&lt;p data-darkreader-inline-border=&quot;&quot; style=&quot;border-color: var(--border-color); margin: 0px 0px 0px 4px; --darkreader-inline-border:var(--darkreader-border--border-color);&quot;&gt;+ TREE_ACTION_PERIOD: int &amp;lt;&amp;lt;static&amp;gt;&amp;gt;&lt;/p&gt;&lt;p data-darkreader-inline-border=&quot;&quot; style=&quot;border-color: var(--border-color); margin: 0px 0px 0px 4px; --darkreader-inline-border:var(--darkreader-border--border-color);&quot;&gt;+ TREE_HEALTH: int &amp;lt;&amp;lt;static&amp;gt;&amp;gt;&lt;/p&gt;&lt;p data-darkreader-inline-border=&quot;&quot; style=&quot;border-color: var(--border-color); margin: 0px 0px 0px 4px; --darkreader-inline-border:var(--darkreader-border--border-color);&quot;&gt;+ TREE_NUM_PROPERTIES: int &amp;lt;&amp;lt;static&amp;gt;&amp;gt;&lt;/p&gt;&lt;hr size=&quot;1&quot;&gt;&lt;p style=&quot;margin:0px;margin-left:4px;&quot;&gt;+ log(): List&amp;lt;String&amp;gt; DONE&lt;/p&gt;&lt;p data-darkreader-inline-border=&quot;&quot; style=&quot;border-color: var(--border-color); margin: 0px 0px 0px 4px; --darkreader-inline-border:var(--darkreader-border--border-color);&quot;&gt;+ parseSapling(): void&lt;/p&gt;&lt;p data-darkreader-inline-border=&quot;&quot; style=&quot;border-color: var(--border-color); margin: 0px 0px 0px 4px; --darkreader-inline-border:var(--darkreader-border--border-color);&quot;&gt;+ parseDude(): void&amp;nbsp;&lt;/p&gt;&lt;p data-darkreader-inline-border=&quot;&quot; style=&quot;border-color: var(--border-color); margin: 0px 0px 0px 4px; --darkreader-inline-border:var(--darkreader-border--border-color);&quot;&gt;+ parseFairy(): void&lt;/p&gt;&lt;p data-darkreader-inline-border=&quot;&quot; style=&quot;border-color: var(--border-color); margin: 0px 0px 0px 4px; --darkreader-inline-border:var(--darkreader-border--border-color);&quot;&gt;+ parseTree(): void&amp;nbsp;&lt;/p&gt;&lt;p data-darkreader-inline-border=&quot;&quot; style=&quot;border-color: var(--border-color); margin: 0px 0px 0px 4px; --darkreader-inline-border:var(--darkreader-border--border-color);&quot;&gt;+ parseObstacle(): void&lt;/p&gt;&lt;p data-darkreader-inline-border=&quot;&quot; style=&quot;border-color: var(--border-color); margin: 0px 0px 0px 4px; --darkreader-inline-border:var(--darkreader-border--border-color);&quot;&gt;+ parseHouse(): void&amp;nbsp;&lt;/p&gt;&lt;p data-darkreader-inline-border=&quot;&quot; style=&quot;border-color: var(--border-color); margin: 0px 0px 0px 4px; --darkreader-inline-border:var(--darkreader-border--border-color);&quot;&gt;+ parseStump(): void&amp;nbsp;&lt;/p&gt;&lt;p style=&quot;border-color: var(--border-color); margin: 0px 0px 0px 4px; --darkreader-inline-border:var(--darkreader-border--border-color);&quot; data-darkreader-inline-border=&quot;&quot;&gt;+ addEntity(): void&amp;nbsp;&lt;/p&gt;&lt;p data-darkreader-inline-border=&quot;&quot; style=&quot;border-color: var(--border-color); margin: 0px 0px 0px 4px; --darkreader-inline-border:var(--darkreader-border--border-color);&quot;&gt;+ tryAddEntity(): void&amp;nbsp;&lt;/p&gt;&lt;p data-darkreader-inline-border=&quot;&quot; style=&quot;border-color: var(--border-color); margin: 0px 0px 0px 4px; --darkreader-inline-border:var(--darkreader-border--border-color);&quot;&gt;+ withinBounds(): boolean&lt;/p&gt;&lt;p data-darkreader-inline-border=&quot;&quot; style=&quot;border-color: var(--border-color); margin: 0px 0px 0px 4px; --darkreader-inline-border:var(--darkreader-border--border-color);&quot;&gt;+ isOccupied(): boolean&amp;nbsp;&lt;/p&gt;&lt;p data-darkreader-inline-border=&quot;&quot; style=&quot;border-color: var(--border-color); margin: 0px 0px 0px 4px; --darkreader-inline-border:var(--darkreader-border--border-color);&quot;&gt;+ getOccuptant(): Optional&amp;lt;Entity&amp;gt;&amp;nbsp;&lt;/p&gt;&lt;p data-darkreader-inline-border=&quot;&quot; style=&quot;border-color: var(--border-color); margin: 0px 0px 0px 4px; --darkreader-inline-border:var(--darkreader-border--border-color);&quot;&gt;+ getOccupancyCell(): Entity&amp;nbsp;&lt;/p&gt;&lt;p data-darkreader-inline-border=&quot;&quot; style=&quot;border-color: var(--border-color); margin: 0px 0px 0px 4px; --darkreader-inline-border:var(--darkreader-border--border-color);&quot;&gt;+ setOccupancyCell(): void&amp;nbsp;&lt;/p&gt;&lt;p data-darkreader-inline-border=&quot;&quot; style=&quot;border-color: var(--border-color); margin: 0px 0px 0px 4px; --darkreader-inline-border:var(--darkreader-border--border-color);&quot;&gt;+ load(): void&amp;nbsp;&lt;/p&gt;&lt;p data-darkreader-inline-border=&quot;&quot; style=&quot;border-color: var(--border-color); margin: 0px 0px 0px 4px; --darkreader-inline-border:var(--darkreader-border--border-color);&quot;&gt;+ parseSaveFile(): void&amp;nbsp;&lt;/p&gt;&lt;p data-darkreader-inline-border=&quot;&quot; style=&quot;border-color: var(--border-color); margin: 0px 0px 0px 4px; --darkreader-inline-border:var(--darkreader-border--border-color);&quot;&gt;+ parseBackgroundRow(): void&amp;nbsp;&lt;/p&gt;&lt;p data-darkreader-inline-border=&quot;&quot; style=&quot;border-color: var(--border-color); margin: 0px 0px 0px 4px; --darkreader-inline-border:var(--darkreader-border--border-color);&quot;&gt;+ parseEntity(): void&amp;nbsp;&lt;/p&gt;&lt;p data-darkreader-inline-border=&quot;&quot; style=&quot;border-color: var(--border-color); margin: 0px 0px 0px 4px; --darkreader-inline-border:var(--darkreader-border--border-color);&quot;&gt;+ getBackgroundCell(): Background&amp;nbsp;&lt;/p&gt;&lt;div&gt;&lt;p data-darkreader-inline-border=&quot;&quot; style=&quot;border-color: var(--border-color); margin: 0px 0px 0px 4px; --darkreader-inline-border:var(--darkreader-border--border-color);&quot;&gt;+ getBackgroundImage(): Optional&amp;lt;PImage&amp;gt;&amp;nbsp;&lt;/p&gt;&lt;p data-darkreader-inline-border=&quot;&quot; style=&quot;border-color: var(--border-color); margin: 0px 0px 0px 4px; --darkreader-inline-border:var(--darkreader-border--border-color);&quot;&gt;+ getCurrentImage(): PImage&lt;/p&gt;&lt;p data-darkreader-inline-border=&quot;&quot; style=&quot;border-color: var(--darkreader-border--border-color); margin: 0px 0px 0px 4px; --darkreader-inline-border:var(--darkreader-border--darkreader-border--border-color);&quot;&gt;+ setBackgroundCell(): void&amp;nbsp;&lt;/p&gt;&lt;p data-darkreader-inline-border=&quot;&quot; style=&quot;border-color: var(--darkreader-border--border-color); margin: 0px 0px 0px 4px; --darkreader-inline-border:var(--darkreader-border--darkreader-border--border-color);&quot;&gt;+ moveEntity(): void &amp;lt;&amp;lt;static&amp;gt;&amp;gt;&lt;br&gt;&lt;/p&gt;&lt;p style=&quot;border-color: var(--border-color); margin: 0px 0px 0px 4px; --darkreader-inline-border:var(--darkreader-border--border-color);&quot; data-darkreader-inline-border=&quot;&quot;&gt;+ removeEntity(): void&amp;nbsp;&lt;/p&gt;&lt;p style=&quot;border-color: var(--border-color); margin: 0px 0px 0px 4px; --darkreader-inline-border:var(--darkreader-border--border-color);&quot; data-darkreader-inline-border=&quot;&quot;&gt;+ removeEntityAt(): void&amp;nbsp;&lt;/p&gt;&lt;p style=&quot;border-color: var(--border-color); margin: 0px 0px 0px 4px; --darkreader-inline-border:var(--darkreader-border--border-color);&quot; data-darkreader-inline-border=&quot;&quot;&gt;+ findNearest(): Optional&amp;lt;Entity&amp;gt;&amp;nbsp;&lt;br data-darkreader-inline-border=&quot;&quot; style=&quot;border-color: var(--darkreader-border--border-color); --darkreader-inline-border:var(--darkreader-border--darkreader-border--border-color);&quot;&gt;&lt;/p&gt;&lt;p style=&quot;border-color: var(--border-color); margin: 0px 0px 0px 4px; --darkreader-inline-border:var(--darkreader-border--border-color);&quot; data-darkreader-inline-border=&quot;&quot;&gt;+ nearestEntity(): Optional&amp;lt;Entity&amp;gt;&amp;nbsp;&lt;/p&gt;&lt;/div&gt;&lt;div&gt;&lt;br&gt;&lt;/div&gt;&lt;div&gt;&lt;br&gt;&lt;/div&gt;&lt;div&gt;&lt;br&gt;&lt;/div&gt;" style="verticalAlign=top;align=left;overflow=fill;fontSize=12;fontFamily=Helvetica;html=1;whiteSpace=wrap;" parent="1" vertex="1">
          <mxGeometry x="20" y="25" width="300" height="945" as="geometry" />
        </mxCell>
        <mxCell id="Xp6BKzQRorlRv3vfpi5h-1" value="&lt;p style=&quot;margin:0px;margin-top:4px;text-align:center;&quot;&gt;&lt;b&gt;WorldView&lt;/b&gt;&lt;/p&gt;&lt;hr size=&quot;1&quot;&gt;&lt;p style=&quot;margin:0px;margin-left:4px;&quot;&gt;- screen: PApplet&lt;/p&gt;&lt;p style=&quot;margin:0px;margin-left:4px;&quot;&gt;- world: WorldModel&lt;/p&gt;&lt;p style=&quot;margin:0px;margin-left:4px;&quot;&gt;- tileWidth: int&lt;/p&gt;&lt;p style=&quot;margin:0px;margin-left:4px;&quot;&gt;- tileHeight: int&lt;/p&gt;&lt;p style=&quot;margin:0px;margin-left:4px;&quot;&gt;- viewport: Viewport&lt;/p&gt;&lt;hr size=&quot;1&quot;&gt;&lt;p style=&quot;margin:0px;margin-left:4px;&quot;&gt;+ clamp(): int&amp;nbsp;&lt;/p&gt;&lt;p style=&quot;margin:0px;margin-left:4px;&quot;&gt;+ shiftView(): void&amp;nbsp;&lt;/p&gt;&lt;p style=&quot;margin:0px;margin-left:4px;&quot;&gt;+ drawBackground(): void&amp;nbsp;&lt;/p&gt;&lt;p style=&quot;margin:0px;margin-left:4px;&quot;&gt;+ drawEntities(): void&amp;nbsp;&lt;br&gt;+ drawViewport(): void&amp;nbsp;&lt;/p&gt;&lt;p style=&quot;margin:0px;margin-left:4px;&quot;&gt;+ getViewport(): Viewport&lt;/p&gt;" style="verticalAlign=top;align=left;overflow=fill;fontSize=12;fontFamily=Helvetica;html=1;whiteSpace=wrap;" parent="1" vertex="1">
          <mxGeometry x="730" y="590" width="260" height="240" as="geometry" />
        </mxCell>
        <mxCell id="ofoJCh2v15Q7XGbgehAf-2" value="&lt;p style=&quot;margin:0px;margin-top:4px;text-align:center;&quot;&gt;&lt;b&gt;Action&amp;nbsp;&lt;/b&gt;&lt;/p&gt;&lt;p style=&quot;margin:0px;margin-top:4px;text-align:center;&quot;&gt;&lt;b&gt;&amp;lt;&amp;lt;abstract&amp;gt;&amp;gt;&lt;/b&gt;&lt;/p&gt;&lt;hr size=&quot;1&quot;&gt;&lt;p style=&quot;margin:0px;margin-left:4px;&quot;&gt;- entity: Entity&lt;/p&gt;&lt;hr size=&quot;1&quot;&gt;&lt;p style=&quot;margin:0px;margin-left:4px;&quot;&gt;+ getEntity(): Entity&lt;/p&gt;&lt;p style=&quot;margin:0px;margin-left:4px;&quot;&gt;+ executeAction(): void&lt;/p&gt;" style="verticalAlign=top;align=left;overflow=fill;fontSize=12;fontFamily=Helvetica;html=1;whiteSpace=wrap;" parent="1" vertex="1">
          <mxGeometry x="820" y="850" width="160" height="125" as="geometry" />
        </mxCell>
        <mxCell id="ofoJCh2v15Q7XGbgehAf-4" value="Extends" style="endArrow=block;endSize=16;endFill=0;html=1;rounded=0;entryX=0.5;entryY=1;entryDx=0;entryDy=0;exitX=0.5;exitY=0;exitDx=0;exitDy=0;" parent="1" source="ofoJCh2v15Q7XGbgehAf-6" target="ofoJCh2v15Q7XGbgehAf-2" edge="1">
          <mxGeometry width="160" relative="1" as="geometry">
            <mxPoint x="745" y="1030" as="sourcePoint" />
            <mxPoint x="880" y="1080" as="targetPoint" />
          </mxGeometry>
        </mxCell>
        <mxCell id="ofoJCh2v15Q7XGbgehAf-5" value="Extends" style="endArrow=block;endSize=16;endFill=0;html=1;rounded=0;entryX=0.5;entryY=1;entryDx=0;entryDy=0;exitX=0.5;exitY=0;exitDx=0;exitDy=0;" parent="1" source="ofoJCh2v15Q7XGbgehAf-7" target="ofoJCh2v15Q7XGbgehAf-2" edge="1">
          <mxGeometry width="160" relative="1" as="geometry">
            <mxPoint x="1005" y="1030" as="sourcePoint" />
            <mxPoint x="1160" y="1070" as="targetPoint" />
          </mxGeometry>
        </mxCell>
        <mxCell id="ofoJCh2v15Q7XGbgehAf-6" value="&lt;p style=&quot;margin:0px;margin-top:4px;text-align:center;&quot;&gt;&lt;b&gt;Animation&lt;/b&gt;&lt;/p&gt;&lt;hr size=&quot;1&quot;&gt;&lt;p style=&quot;margin:0px;margin-left:4px;&quot;&gt;- repeatCount: int&lt;/p&gt;&lt;hr size=&quot;1&quot;&gt;&lt;p style=&quot;margin:0px;margin-left:4px;&quot;&gt;&lt;br&gt;&lt;/p&gt;" style="verticalAlign=top;align=left;overflow=fill;fontSize=12;fontFamily=Helvetica;html=1;whiteSpace=wrap;" parent="1" vertex="1">
          <mxGeometry x="700" y="1030" width="210" height="90" as="geometry" />
        </mxCell>
        <mxCell id="ofoJCh2v15Q7XGbgehAf-7" value="&lt;p style=&quot;margin:0px;margin-top:4px;text-align:center;&quot;&gt;&lt;b&gt;Activity&lt;/b&gt;&lt;/p&gt;&lt;hr size=&quot;1&quot;&gt;&lt;p style=&quot;margin:0px;margin-left:4px;&quot;&gt;- world: WorldModel&lt;/p&gt;&lt;p style=&quot;margin:0px;margin-left:4px;&quot;&gt;- imageStore: imageStore&lt;/p&gt;&lt;hr size=&quot;1&quot;&gt;&lt;p style=&quot;margin:0px;margin-left:4px;&quot;&gt;&lt;br&gt;&lt;/p&gt;" style="verticalAlign=top;align=left;overflow=fill;fontSize=12;fontFamily=Helvetica;html=1;whiteSpace=wrap;" parent="1" vertex="1">
          <mxGeometry x="930" y="1030" width="190" height="90" as="geometry" />
        </mxCell>
        <mxCell id="ofoJCh2v15Q7XGbgehAf-8" value="&lt;p style=&quot;margin:0px;margin-top:4px;text-align:center;&quot;&gt;&lt;b&gt;Entity&amp;nbsp;&lt;br&gt;&amp;lt;&amp;lt;abstract&amp;gt;&amp;gt;&lt;/b&gt;&lt;/p&gt;&lt;hr size=&quot;1&quot;&gt;&lt;p data-darkreader-inline-border=&quot;&quot; style=&quot;border-color: var(--border-color); margin: 0px 0px 0px 4px; --darkreader-inline-border: var(--darkreader-border--border-color);&quot;&gt;- id: String&lt;/p&gt;&lt;p data-darkreader-inline-border=&quot;&quot; style=&quot;border-color: var(--border-color); margin: 0px 0px 0px 4px; --darkreader-inline-border: var(--darkreader-border--border-color);&quot;&gt;- position: Point&lt;/p&gt;&lt;p data-darkreader-inline-border=&quot;&quot; style=&quot;border-color: var(--border-color); margin: 0px 0px 0px 4px; --darkreader-inline-border: var(--darkreader-border--border-color);&quot;&gt;- images: List&amp;lt;PImage&amp;gt;&lt;/p&gt;&lt;p data-darkreader-inline-border=&quot;&quot; style=&quot;border-color: var(--border-color); margin: 0px 0px 0px 4px; --darkreader-inline-border: var(--darkreader-border--border-color);&quot;&gt;- imageIndex: int&lt;/p&gt;&lt;hr size=&quot;1&quot;&gt;&lt;p style=&quot;margin:0px;margin-left:4px;&quot;&gt;+ log(): String&lt;/p&gt;&lt;p style=&quot;margin:0px;margin-left:4px;&quot;&gt;+ nextImage(): void&lt;/p&gt;&lt;p style=&quot;margin:0px;margin-left:4px;&quot;&gt;&lt;br&gt;&lt;/p&gt;&lt;p style=&quot;margin:0px;margin-left:4px;&quot;&gt;+ adjacent(): Point&lt;/p&gt;&lt;p style=&quot;border-color: var(--darkreader-border--border-color); margin: 0px 0px 0px 4px; --darkreader-inline-border: var(--darkreader-border--darkreader-border--border-color);&quot; data-darkreader-inline-border=&quot;&quot;&gt;+ getIntFromRange(): int&amp;nbsp;&lt;br style=&quot;border-color: var(--darkreader-border--border-color); --darkreader-inline-border: var(--darkreader-border--darkreader-border--border-color);&quot; data-darkreader-inline-border=&quot;&quot;&gt;&lt;/p&gt;&lt;p style=&quot;border-color: var(--darkreader-border--border-color); margin: 0px 0px 0px 4px; --darkreader-inline-border: var(--darkreader-border--darkreader-border--border-color);&quot; data-darkreader-inline-border=&quot;&quot;&gt;+ getNumFromRange(): double&lt;/p&gt;&lt;p style=&quot;border-color: var(--darkreader-border--border-color); margin: 0px 0px 0px 4px; --darkreader-inline-border: var(--darkreader-border--darkreader-border--border-color);&quot; data-darkreader-inline-border=&quot;&quot;&gt;&lt;br&gt;&lt;/p&gt;&lt;p style=&quot;border-color: var(--darkreader-border--border-color); margin: 0px 0px 0px 4px; --darkreader-inline-border: var(--darkreader-border--darkreader-border--border-color);&quot; data-darkreader-inline-border=&quot;&quot;&gt;&lt;br&gt;&lt;/p&gt;&lt;p style=&quot;border-color: var(--border-color); margin: 0px 0px 0px 4px; --darkreader-inline-border: var(--darkreader-border--border-color);&quot; data-darkreader-inline-border=&quot;&quot;&gt;&lt;span style=&quot;background-color: initial;&quot;&gt;+ getId(): String&lt;/span&gt;&lt;br&gt;&lt;/p&gt;&lt;p style=&quot;border-color: var(--border-color); margin: 0px 0px 0px 4px; --darkreader-inline-border: var(--darkreader-border--border-color);&quot; data-darkreader-inline-border=&quot;&quot;&gt;+ getPosition(): Point&lt;/p&gt;&lt;p style=&quot;border-color: var(--border-color); margin: 0px 0px 0px 4px; --darkreader-inline-border: var(--darkreader-border--border-color);&quot; data-darkreader-inline-border=&quot;&quot;&gt;+ setPosition(): void&lt;/p&gt;&lt;p style=&quot;border-color: var(--border-color); margin: 0px 0px 0px 4px; --darkreader-inline-border: var(--darkreader-border--border-color);&quot; data-darkreader-inline-border=&quot;&quot;&gt;+ getImages(): List&amp;lt;PImage&amp;gt;&lt;/p&gt;&lt;p style=&quot;border-color: var(--border-color); margin: 0px 0px 0px 4px; --darkreader-inline-border: var(--darkreader-border--border-color);&quot; data-darkreader-inline-border=&quot;&quot;&gt;+ getImageIndex(): int&lt;/p&gt;&lt;p style=&quot;border-color: var(--border-color); margin: 0px 0px 0px 4px; --darkreader-inline-border: var(--darkreader-border--border-color);&quot; data-darkreader-inline-border=&quot;&quot;&gt;&lt;br&gt;&lt;/p&gt;" style="verticalAlign=top;align=left;overflow=fill;fontSize=12;fontFamily=Helvetica;html=1;whiteSpace=wrap;" parent="1" vertex="1">
          <mxGeometry x="2410" y="20" width="200" height="305" as="geometry" />
        </mxCell>
        <mxCell id="ofoJCh2v15Q7XGbgehAf-12" value="&lt;p style=&quot;margin:0px;margin-top:4px;text-align:center;&quot;&gt;&lt;b&gt;ExecuteEntity&lt;/b&gt;&lt;/p&gt;&lt;p style=&quot;margin:0px;margin-top:4px;text-align:center;&quot;&gt;&lt;b style=&quot;background-color: initial;&quot;&gt;&amp;lt;&amp;lt;interface&amp;gt;&amp;gt;&lt;/b&gt;&lt;br&gt;&lt;/p&gt;&lt;hr size=&quot;1&quot;&gt;&lt;p style=&quot;margin:0px;margin-left:4px;&quot;&gt;&lt;br&gt;&lt;/p&gt;&lt;hr size=&quot;1&quot;&gt;&lt;p style=&quot;border-color: var(--border-color); margin: 0px 0px 0px 4px; --darkreader-inline-border:var(--darkreader-border--border-color);&quot; data-darkreader-inline-border=&quot;&quot;&gt;+ executeActivity(): void&lt;/p&gt;" style="verticalAlign=top;align=left;overflow=fill;fontSize=12;fontFamily=Helvetica;html=1;whiteSpace=wrap;" parent="1" vertex="1">
          <mxGeometry x="2070" y="1070" width="265" height="90" as="geometry" />
        </mxCell>
        <mxCell id="ofoJCh2v15Q7XGbgehAf-13" value="&lt;p style=&quot;margin:0px;margin-top:4px;text-align:center;&quot;&gt;&lt;b style=&quot;background-color: initial;&quot;&gt;TransformEntity&lt;/b&gt;&lt;/p&gt;&lt;p style=&quot;margin:0px;margin-top:4px;text-align:center;&quot;&gt;&lt;b style=&quot;background-color: initial;&quot;&gt;&amp;lt;&amp;lt;interface&amp;gt;&amp;gt;&lt;/b&gt;&lt;br&gt;&lt;/p&gt;&lt;hr size=&quot;1&quot;&gt;&lt;p style=&quot;margin:0px;margin-left:4px;&quot;&gt;&lt;br&gt;&lt;/p&gt;&lt;hr size=&quot;1&quot;&gt;&lt;p style=&quot;border-color: var(--border-color); margin: 0px 0px 0px 4px; --darkreader-inline-border:var(--darkreader-border--border-color);&quot; data-darkreader-inline-border=&quot;&quot;&gt;+ transform(): boolean&lt;/p&gt;" style="verticalAlign=top;align=left;overflow=fill;fontSize=12;fontFamily=Helvetica;html=1;whiteSpace=wrap;" parent="1" vertex="1">
          <mxGeometry x="2400" y="1070" width="265" height="90" as="geometry" />
        </mxCell>
        <mxCell id="ofoJCh2v15Q7XGbgehAf-14" value="&lt;p style=&quot;margin:0px;margin-top:4px;text-align:center;&quot;&gt;&lt;b data-darkreader-inline-bgcolor=&quot;&quot; style=&quot;background-color: initial; --darkreader-inline-bgcolor: initial;&quot;&gt;MoveEntity&lt;/b&gt;&lt;/p&gt;&lt;p style=&quot;margin:0px;margin-top:4px;text-align:center;&quot;&gt;&lt;b data-darkreader-inline-bgcolor=&quot;&quot; style=&quot;background-color: initial; --darkreader-inline-bgcolor: initial;&quot;&gt;&amp;lt;&amp;lt;interface&amp;gt;&amp;gt;&lt;/b&gt;&lt;br&gt;&lt;/p&gt;&lt;hr size=&quot;1&quot;&gt;&lt;p style=&quot;margin:0px;margin-left:4px;&quot;&gt;&lt;br&gt;&lt;/p&gt;&lt;hr size=&quot;1&quot;&gt;&lt;p style=&quot;border-color: var(--border-color); margin: 0px 0px 0px 4px; --darkreader-inline-border: var(--darkreader-border--border-color);&quot; data-darkreader-inline-border=&quot;&quot;&gt;+ moveTo(): boolean&lt;/p&gt;&lt;p style=&quot;border-color: var(--border-color); margin: 0px 0px 0px 4px; --darkreader-inline-border: var(--darkreader-border--border-color);&quot; data-darkreader-inline-border=&quot;&quot;&gt;+ nextPosition(): Point&lt;/p&gt;&lt;p style=&quot;border-color: var(--border-color); margin: 0px 0px 0px 4px; --darkreader-inline-border: var(--darkreader-border--border-color);&quot; data-darkreader-inline-border=&quot;&quot;&gt;&lt;br&gt;&lt;/p&gt;" style="verticalAlign=top;align=left;overflow=fill;fontSize=12;fontFamily=Helvetica;html=1;whiteSpace=wrap;" parent="1" vertex="1">
          <mxGeometry x="2740" y="1070" width="265" height="110" as="geometry" />
        </mxCell>
        <mxCell id="ofoJCh2v15Q7XGbgehAf-16" value="&lt;p style=&quot;margin:0px;margin-top:4px;text-align:center;&quot;&gt;&lt;b&gt;House&lt;/b&gt;&lt;/p&gt;&lt;hr size=&quot;1&quot;&gt;&lt;p style=&quot;margin:0px;margin-left:4px;&quot;&gt;&lt;br&gt;&lt;/p&gt;&lt;hr size=&quot;1&quot;&gt;&lt;p style=&quot;margin:0px;margin-left:4px;&quot;&gt;&lt;br&gt;&lt;/p&gt;" style="verticalAlign=top;align=left;overflow=fill;fontSize=12;fontFamily=Helvetica;html=1;whiteSpace=wrap;" parent="1" vertex="1">
          <mxGeometry x="2665" y="410" width="190" height="75" as="geometry" />
        </mxCell>
        <mxCell id="ofoJCh2v15Q7XGbgehAf-18" value="Extends" style="endArrow=block;endSize=16;endFill=0;html=1;rounded=0;entryX=0.5;entryY=1;entryDx=0;entryDy=0;exitX=0.5;exitY=0;exitDx=0;exitDy=0;" parent="1" source="ofoJCh2v15Q7XGbgehAf-16" target="ofoJCh2v15Q7XGbgehAf-8" edge="1">
          <mxGeometry width="160" relative="1" as="geometry">
            <mxPoint x="1770" y="630" as="sourcePoint" />
            <mxPoint x="1930" y="630" as="targetPoint" />
          </mxGeometry>
        </mxCell>
        <mxCell id="OE9__StprMBzeyXRdeje-3" value="&lt;p style=&quot;margin:0px;margin-top:4px;text-align:center;&quot;&gt;&lt;b&gt;Dude_Full&lt;/b&gt;&lt;/p&gt;&lt;hr size=&quot;1&quot;&gt;&lt;p style=&quot;margin:0px;margin-left:4px;&quot;&gt;&lt;br&gt;&lt;/p&gt;&lt;hr size=&quot;1&quot;&gt;&lt;p style=&quot;margin:0px;margin-left:4px;&quot;&gt;+ transform(): boolean&lt;/p&gt;&lt;p style=&quot;margin:0px;margin-left:4px;&quot;&gt;+ executeActivity(): void&lt;/p&gt;&lt;p style=&quot;margin:0px;margin-left:4px;&quot;&gt;+ moveTo(): boolean&lt;/p&gt;&lt;p style=&quot;margin:0px;margin-left:4px;&quot;&gt;&lt;br&gt;&lt;/p&gt;" style="verticalAlign=top;align=left;overflow=fill;fontSize=12;fontFamily=Helvetica;html=1;whiteSpace=wrap;" parent="1" vertex="1">
          <mxGeometry x="2340" y="820" width="190" height="105" as="geometry" />
        </mxCell>
        <mxCell id="OE9__StprMBzeyXRdeje-6" value="" style="endArrow=block;dashed=1;endFill=0;endSize=12;html=1;rounded=0;entryX=0.5;entryY=0;entryDx=0;entryDy=0;exitX=0.5;exitY=1;exitDx=0;exitDy=0;" parent="1" source="lJiX0_LvJ2jpschvsqrX-2" target="ofoJCh2v15Q7XGbgehAf-13" edge="1">
          <mxGeometry width="160" relative="1" as="geometry">
            <mxPoint x="2012" y="900" as="sourcePoint" />
            <mxPoint x="1930" y="1235" as="targetPoint" />
          </mxGeometry>
        </mxCell>
        <mxCell id="OE9__StprMBzeyXRdeje-7" value="" style="endArrow=block;dashed=1;endFill=0;endSize=12;html=1;rounded=0;entryX=0.5;entryY=0;entryDx=0;entryDy=0;exitX=0.5;exitY=1;exitDx=0;exitDy=0;" parent="1" source="lJiX0_LvJ2jpschvsqrX-2" target="ofoJCh2v15Q7XGbgehAf-14" edge="1">
          <mxGeometry width="160" relative="1" as="geometry">
            <mxPoint x="2092" y="860" as="sourcePoint" />
            <mxPoint x="2010" y="1195" as="targetPoint" />
          </mxGeometry>
        </mxCell>
        <mxCell id="OE9__StprMBzeyXRdeje-9" value="Extends" style="endArrow=block;endSize=16;endFill=0;html=1;rounded=0;entryX=0.5;entryY=1;entryDx=0;entryDy=0;exitX=0.5;exitY=0;exitDx=0;exitDy=0;" parent="1" source="OE9__StprMBzeyXRdeje-3" target="lJiX0_LvJ2jpschvsqrX-2" edge="1">
          <mxGeometry width="160" relative="1" as="geometry">
            <mxPoint x="2090" y="725" as="sourcePoint" />
            <mxPoint x="2515" y="540" as="targetPoint" />
          </mxGeometry>
        </mxCell>
        <mxCell id="OE9__StprMBzeyXRdeje-10" value="&lt;p style=&quot;margin:0px;margin-top:4px;text-align:center;&quot;&gt;&lt;b&gt;Dude_Not_Full&lt;/b&gt;&lt;/p&gt;&lt;hr size=&quot;1&quot;&gt;&lt;p style=&quot;margin:0px;margin-left:4px;&quot;&gt;&lt;br&gt;&lt;/p&gt;&lt;hr size=&quot;1&quot;&gt;&lt;p style=&quot;border-color: var(--border-color); margin: 0px 0px 0px 4px;&quot;&gt;+ transform(): boolean&lt;/p&gt;&lt;p style=&quot;border-color: var(--border-color); margin: 0px 0px 0px 4px;&quot;&gt;+ executeActivity(): void&lt;/p&gt;&lt;p style=&quot;border-color: var(--border-color); margin: 0px 0px 0px 4px;&quot;&gt;+ moveTo(): boolean&lt;/p&gt;" style="verticalAlign=top;align=left;overflow=fill;fontSize=12;fontFamily=Helvetica;html=1;whiteSpace=wrap;" parent="1" vertex="1">
          <mxGeometry x="2550" y="820" width="200" height="105" as="geometry" />
        </mxCell>
        <mxCell id="OE9__StprMBzeyXRdeje-11" value="Extends" style="endArrow=block;endSize=16;endFill=0;html=1;rounded=0;entryX=0.5;entryY=1;entryDx=0;entryDy=0;exitX=0.5;exitY=0;exitDx=0;exitDy=0;" parent="1" source="OE9__StprMBzeyXRdeje-10" target="lJiX0_LvJ2jpschvsqrX-2" edge="1">
          <mxGeometry width="160" relative="1" as="geometry">
            <mxPoint x="2320" y="725" as="sourcePoint" />
            <mxPoint x="2515" y="540" as="targetPoint" />
          </mxGeometry>
        </mxCell>
        <mxCell id="OE9__StprMBzeyXRdeje-17" value="&lt;p style=&quot;margin:0px;margin-top:4px;text-align:center;&quot;&gt;&lt;b&gt;Obstacle&lt;/b&gt;&lt;/p&gt;&lt;hr size=&quot;1&quot;&gt;&lt;p style=&quot;margin:0px;margin-left:4px;&quot;&gt;&lt;br&gt;&lt;/p&gt;&lt;hr size=&quot;1&quot;&gt;&lt;p style=&quot;margin:0px;margin-left:4px;&quot;&gt;&lt;br&gt;&lt;/p&gt;&lt;p style=&quot;margin:0px;margin-left:4px;&quot;&gt;&lt;br&gt;&lt;/p&gt;" style="verticalAlign=top;align=left;overflow=fill;fontSize=12;fontFamily=Helvetica;html=1;whiteSpace=wrap;" parent="1" vertex="1">
          <mxGeometry x="2280" y="660" width="200" height="75" as="geometry" />
        </mxCell>
        <mxCell id="OE9__StprMBzeyXRdeje-20" value="Extends" style="endArrow=block;endSize=16;endFill=0;html=1;rounded=0;entryX=0.5;entryY=1;entryDx=0;entryDy=0;exitX=0.5;exitY=0;exitDx=0;exitDy=0;" parent="1" source="OE9__StprMBzeyXRdeje-17" target="KwyV1Xflm9IYI-2QEycQ-1" edge="1">
          <mxGeometry width="160" relative="1" as="geometry">
            <mxPoint x="2200" y="545" as="sourcePoint" />
            <mxPoint x="2150" y="360" as="targetPoint" />
          </mxGeometry>
        </mxCell>
        <mxCell id="OE9__StprMBzeyXRdeje-21" value="&lt;p style=&quot;margin:0px;margin-top:4px;text-align:center;&quot;&gt;&lt;b&gt;Fairy&lt;/b&gt;&lt;/p&gt;&lt;hr size=&quot;1&quot;&gt;&lt;p style=&quot;margin:0px;margin-left:4px;&quot;&gt;&lt;br&gt;&lt;/p&gt;&lt;hr size=&quot;1&quot;&gt;&lt;p style=&quot;margin:0px;margin-left:4px;&quot;&gt;+ executeActivity(): void&lt;/p&gt;&lt;p style=&quot;margin:0px;margin-left:4px;&quot;&gt;+ moveTo(): boolean&lt;/p&gt;&lt;p style=&quot;margin:0px;margin-left:4px;&quot;&gt;+ nextPosition(): Point&lt;/p&gt;&lt;p style=&quot;margin:0px;margin-left:4px;&quot;&gt;&lt;br&gt;&lt;/p&gt;" style="verticalAlign=top;align=left;overflow=fill;fontSize=12;fontFamily=Helvetica;html=1;whiteSpace=wrap;" parent="1" vertex="1">
          <mxGeometry x="2780" y="820" width="200" height="105" as="geometry" />
        </mxCell>
        <mxCell id="OE9__StprMBzeyXRdeje-23" value="Extends" style="endArrow=block;endSize=16;endFill=0;html=1;rounded=0;entryX=0.5;entryY=1;entryDx=0;entryDy=0;exitX=0.5;exitY=0;exitDx=0;exitDy=0;" parent="1" source="OE9__StprMBzeyXRdeje-21" target="KwyV1Xflm9IYI-2QEycQ-1" edge="1">
          <mxGeometry width="160" relative="1" as="geometry">
            <mxPoint x="2450" y="545" as="sourcePoint" />
            <mxPoint x="2150" y="360" as="targetPoint" />
          </mxGeometry>
        </mxCell>
        <mxCell id="OE9__StprMBzeyXRdeje-24" value="" style="endArrow=block;dashed=1;endFill=0;endSize=12;html=1;rounded=0;exitX=0.5;exitY=1;exitDx=0;exitDy=0;entryX=0.5;entryY=0;entryDx=0;entryDy=0;" parent="1" source="OE9__StprMBzeyXRdeje-21" target="ofoJCh2v15Q7XGbgehAf-12" edge="1">
          <mxGeometry width="160" relative="1" as="geometry">
            <mxPoint x="2200" y="970" as="sourcePoint" />
            <mxPoint x="2693" y="1290" as="targetPoint" />
          </mxGeometry>
        </mxCell>
        <mxCell id="OE9__StprMBzeyXRdeje-27" value="" style="endArrow=block;dashed=1;endFill=0;endSize=12;html=1;rounded=0;exitX=0.5;exitY=1;exitDx=0;exitDy=0;entryX=0.5;entryY=0;entryDx=0;entryDy=0;" parent="1" source="OE9__StprMBzeyXRdeje-21" target="ofoJCh2v15Q7XGbgehAf-14" edge="1">
          <mxGeometry width="160" relative="1" as="geometry">
            <mxPoint x="2470" y="1010" as="sourcePoint" />
            <mxPoint x="1723" y="1310" as="targetPoint" />
          </mxGeometry>
        </mxCell>
        <mxCell id="OE9__StprMBzeyXRdeje-28" value="&lt;p style=&quot;margin:0px;margin-top:4px;text-align:center;&quot;&gt;&lt;b&gt;Stump&lt;/b&gt;&lt;/p&gt;&lt;hr size=&quot;1&quot;&gt;&lt;p style=&quot;margin:0px;margin-left:4px;&quot;&gt;&lt;br&gt;&lt;/p&gt;&lt;hr size=&quot;1&quot;&gt;&lt;p style=&quot;margin:0px;margin-left:4px;&quot;&gt;&lt;br&gt;&lt;/p&gt;" style="verticalAlign=top;align=left;overflow=fill;fontSize=12;fontFamily=Helvetica;html=1;whiteSpace=wrap;" parent="1" vertex="1">
          <mxGeometry x="2160" y="410" width="200" height="85" as="geometry" />
        </mxCell>
        <mxCell id="OE9__StprMBzeyXRdeje-32" value="Extends" style="endArrow=block;endSize=16;endFill=0;html=1;rounded=0;entryX=0.5;entryY=1;entryDx=0;entryDy=0;exitX=0.5;exitY=0;exitDx=0;exitDy=0;" parent="1" source="OE9__StprMBzeyXRdeje-28" target="ofoJCh2v15Q7XGbgehAf-8" edge="1">
          <mxGeometry width="160" relative="1" as="geometry">
            <mxPoint x="2760" y="645" as="sourcePoint" />
            <mxPoint x="2210" y="460" as="targetPoint" />
          </mxGeometry>
        </mxCell>
        <mxCell id="OE9__StprMBzeyXRdeje-33" value="&lt;p style=&quot;margin:0px;margin-top:4px;text-align:center;&quot;&gt;&lt;b&gt;Sapling&lt;/b&gt;&lt;/p&gt;&lt;hr size=&quot;1&quot;&gt;&lt;p style=&quot;margin:0px;margin-left:4px;&quot;&gt;+ SAPLING_ACTION_ANIMATION_PERIOD: double &amp;lt;&amp;lt;static&amp;gt;&amp;gt;&lt;/p&gt;&lt;p style=&quot;margin:0px;margin-left:4px;&quot;&gt;+ SAPLING_HEALTH_LIMIT: int &amp;lt;&amp;lt;static&amp;gt;&amp;gt;&lt;/p&gt;&lt;hr size=&quot;1&quot;&gt;&lt;p style=&quot;margin:0px;margin-left:4px;&quot;&gt;+ transform(): boolean&lt;/p&gt;&lt;p style=&quot;margin:0px;margin-left:4px;&quot;&gt;+ executeActivity(): void&lt;/p&gt;&lt;p data-darkreader-inline-border=&quot;&quot; style=&quot;border-color: var(--border-color); margin: 0px 0px 0px 4px; --darkreader-inline-border: var(--darkreader-border--border-color);&quot;&gt;&lt;br&gt;&lt;/p&gt;" style="verticalAlign=top;align=left;overflow=fill;fontSize=12;fontFamily=Helvetica;html=1;whiteSpace=wrap;" parent="1" vertex="1">
          <mxGeometry x="1630" y="1030" width="350" height="105" as="geometry" />
        </mxCell>
        <mxCell id="OE9__StprMBzeyXRdeje-36" value="Extends" style="endArrow=block;endSize=16;endFill=0;html=1;rounded=0;entryX=0.5;entryY=1;entryDx=0;entryDy=0;exitX=0.5;exitY=0;exitDx=0;exitDy=0;" parent="1" source="OE9__StprMBzeyXRdeje-33" target="KwyV1Xflm9IYI-2QEycQ-10" edge="1">
          <mxGeometry width="160" relative="1" as="geometry">
            <mxPoint x="2400" y="535" as="sourcePoint" />
            <mxPoint x="2150" y="355" as="targetPoint" />
          </mxGeometry>
        </mxCell>
        <mxCell id="OE9__StprMBzeyXRdeje-37" value="" style="endArrow=block;dashed=1;endFill=0;endSize=12;html=1;rounded=0;exitX=0.5;exitY=1;exitDx=0;exitDy=0;entryX=0.5;entryY=0;entryDx=0;entryDy=0;" parent="1" source="KwyV1Xflm9IYI-2QEycQ-10" target="ofoJCh2v15Q7XGbgehAf-12" edge="1">
          <mxGeometry width="160" relative="1" as="geometry">
            <mxPoint x="2700" y="1000" as="sourcePoint" />
            <mxPoint x="2693" y="1290" as="targetPoint" />
          </mxGeometry>
        </mxCell>
        <mxCell id="OE9__StprMBzeyXRdeje-38" value="" style="endArrow=block;dashed=1;endFill=0;endSize=12;html=1;rounded=0;exitX=0.5;exitY=1;exitDx=0;exitDy=0;entryX=0.5;entryY=0;entryDx=0;entryDy=0;" parent="1" source="KwyV1Xflm9IYI-2QEycQ-10" target="ofoJCh2v15Q7XGbgehAf-13" edge="1">
          <mxGeometry width="160" relative="1" as="geometry">
            <mxPoint x="2710" y="1010" as="sourcePoint" />
            <mxPoint x="2703" y="1300" as="targetPoint" />
          </mxGeometry>
        </mxCell>
        <mxCell id="OE9__StprMBzeyXRdeje-39" value="&lt;p style=&quot;margin:0px;margin-top:4px;text-align:center;&quot;&gt;&lt;b&gt;Tree&lt;/b&gt;&lt;/p&gt;&lt;hr size=&quot;1&quot;&gt;&lt;p style=&quot;margin:0px;margin-left:4px;&quot;&gt;+ TREE_ANIMATION_MAX: double &amp;lt;&amp;lt;static&amp;gt;&amp;gt;&lt;/p&gt;&lt;p style=&quot;margin:0px;margin-left:4px;&quot;&gt;+ TREE_ANIMATION_MIN: double &amp;lt;&amp;lt;static&amp;gt;&amp;gt;&lt;/p&gt;&lt;p style=&quot;margin:0px;margin-left:4px;&quot;&gt;+ TREE_ACTION_MAX: double &amp;lt;&amp;lt;static&amp;gt;&amp;gt;&lt;/p&gt;&lt;p style=&quot;margin:0px;margin-left:4px;&quot;&gt;+ TREE_ACTION_MIN: double &amp;lt;&amp;lt;static&amp;gt;&amp;gt;&lt;/p&gt;&lt;p style=&quot;margin:0px;margin-left:4px;&quot;&gt;+ TREE_HEALTH_MAX: int &amp;lt;&amp;lt;static&amp;gt;&amp;gt;&lt;/p&gt;&lt;p style=&quot;margin:0px;margin-left:4px;&quot;&gt;+ TREE_HEALTH_MIN: int &amp;lt;&amp;lt;static&amp;gt;&amp;gt;&lt;/p&gt;&lt;hr size=&quot;1&quot;&gt;&lt;p style=&quot;margin:0px;margin-left:4px;&quot;&gt;+ transform(): boolean&lt;/p&gt;&lt;p style=&quot;margin:0px;margin-left:4px;&quot;&gt;+ executeActivity(): void&lt;/p&gt;&lt;p data-darkreader-inline-border=&quot;&quot; style=&quot;border-color: var(--border-color); margin: 0px 0px 0px 4px; --darkreader-inline-border: var(--darkreader-border--border-color);&quot;&gt;&lt;br&gt;&lt;/p&gt;" style="verticalAlign=top;align=left;overflow=fill;fontSize=12;fontFamily=Helvetica;html=1;whiteSpace=wrap;" parent="1" vertex="1">
          <mxGeometry x="1580" y="855" width="260" height="165" as="geometry" />
        </mxCell>
        <mxCell id="OE9__StprMBzeyXRdeje-44" value="Extends" style="endArrow=block;endSize=16;endFill=0;html=1;rounded=0;entryX=0.5;entryY=1;entryDx=0;entryDy=0;exitX=0.5;exitY=0;exitDx=0;exitDy=0;" parent="1" source="OE9__StprMBzeyXRdeje-39" target="KwyV1Xflm9IYI-2QEycQ-10" edge="1">
          <mxGeometry width="160" relative="1" as="geometry">
            <mxPoint x="2650" y="535" as="sourcePoint" />
            <mxPoint x="2150" y="355" as="targetPoint" />
          </mxGeometry>
        </mxCell>
        <mxCell id="lJiX0_LvJ2jpschvsqrX-2" value="&lt;p style=&quot;margin:0px;margin-top:4px;text-align:center;&quot;&gt;&lt;b&gt;Dude&lt;/b&gt;&lt;/p&gt;&lt;p style=&quot;margin:0px;margin-top:4px;text-align:center;&quot;&gt;&lt;b data-darkreader-inline-bgcolor=&quot;&quot; style=&quot;background-color: initial; --darkreader-inline-bgcolor: initial;&quot;&gt;&amp;lt;&amp;lt;abstract&amp;gt;&amp;gt;&lt;/b&gt;&lt;br&gt;&lt;/p&gt;&lt;hr size=&quot;1&quot;&gt;&lt;p style=&quot;margin:0px;margin-left:4px;&quot;&gt;- resourceLimit: int&lt;/p&gt;&lt;hr size=&quot;1&quot;&gt;&lt;p style=&quot;border-color: var(--border-color); margin: 0px 0px 0px 4px; --darkreader-inline-border: var(--darkreader-border--border-color);&quot; data-darkreader-inline-border=&quot;&quot;&gt;+ getResourceLimit(): int&lt;/p&gt;&lt;p style=&quot;border-color: var(--border-color); margin: 0px 0px 0px 4px; --darkreader-inline-border: var(--darkreader-border--border-color);&quot; data-darkreader-inline-border=&quot;&quot;&gt;+ nextPosition(): Point&lt;/p&gt;" style="verticalAlign=top;align=left;overflow=fill;fontSize=12;fontFamily=Helvetica;html=1;whiteSpace=wrap;" parent="1" vertex="1">
          <mxGeometry x="2060" y="660" width="175" height="110" as="geometry" />
        </mxCell>
        <mxCell id="lJiX0_LvJ2jpschvsqrX-3" value="Extends" style="endArrow=block;endSize=16;endFill=0;html=1;rounded=0;entryX=0.5;entryY=1;entryDx=0;entryDy=0;exitX=0.5;exitY=0;exitDx=0;exitDy=0;" parent="1" source="lJiX0_LvJ2jpschvsqrX-2" target="KwyV1Xflm9IYI-2QEycQ-1" edge="1">
          <mxGeometry width="160" relative="1" as="geometry">
            <mxPoint x="2177" y="500" as="sourcePoint" />
            <mxPoint x="2350" y="445" as="targetPoint" />
          </mxGeometry>
        </mxCell>
        <mxCell id="KwyV1Xflm9IYI-2QEycQ-1" value="&lt;p style=&quot;margin:0px;margin-top:4px;text-align:center;&quot;&gt;&lt;b&gt;Schedule&lt;/b&gt;&lt;b data-darkreader-inline-color=&quot;&quot; data-darkreader-inline-bgcolor=&quot;&quot; style=&quot;background-color: initial; color: rgb(0, 0, 0); --darkreader-inline-bgcolor: initial; --darkreader-inline-color: #e8e6e3;&quot;&gt;Entity&lt;/b&gt;&lt;/p&gt;&lt;p style=&quot;margin:0px;margin-top:4px;text-align:center;&quot;&gt;&lt;b data-darkreader-inline-bgcolor=&quot;&quot; style=&quot;background-color: initial; --darkreader-inline-bgcolor: initial;&quot;&gt;&amp;lt;&amp;lt;abstract&amp;gt;&amp;gt;&lt;/b&gt;&lt;br&gt;&lt;/p&gt;&lt;hr size=&quot;1&quot;&gt;&lt;p style=&quot;margin:0px;margin-left:4px;&quot;&gt;- actionPeriod: double&lt;/p&gt;&lt;p style=&quot;margin:0px;margin-left:4px;&quot;&gt;- animationPeriod: double&lt;/p&gt;&lt;hr size=&quot;1&quot;&gt;&lt;p style=&quot;border-color: var(--border-color); margin: 0px 0px 0px 4px; --darkreader-inline-border: var(--darkreader-border--border-color);&quot; data-darkreader-inline-border=&quot;&quot;&gt;+ scheduleActions(): void&lt;/p&gt;&lt;p style=&quot;border-color: var(--border-color); margin: 0px 0px 0px 4px; --darkreader-inline-border: var(--darkreader-border--border-color);&quot; data-darkreader-inline-border=&quot;&quot;&gt;&lt;br&gt;&lt;/p&gt;&lt;p style=&quot;border-color: var(--border-color); margin: 0px 0px 0px 4px; --darkreader-inline-border: var(--darkreader-border--border-color);&quot; data-darkreader-inline-border=&quot;&quot;&gt;+ getActionPeriod(): double&lt;/p&gt;&lt;p style=&quot;border-color: var(--border-color); margin: 0px 0px 0px 4px; --darkreader-inline-border: var(--darkreader-border--border-color);&quot; data-darkreader-inline-border=&quot;&quot;&gt;+ getAnimationPeriod(): double&lt;/p&gt;" style="verticalAlign=top;align=left;overflow=fill;fontSize=12;fontFamily=Helvetica;html=1;whiteSpace=wrap;" parent="1" vertex="1">
          <mxGeometry x="2375" y="410" width="265" height="160" as="geometry" />
        </mxCell>
        <mxCell id="KwyV1Xflm9IYI-2QEycQ-8" value="Extends" style="endArrow=block;endSize=16;endFill=0;html=1;rounded=0;entryX=0.5;entryY=1;entryDx=0;entryDy=0;exitX=0.5;exitY=0;exitDx=0;exitDy=0;" parent="1" source="KwyV1Xflm9IYI-2QEycQ-1" target="ofoJCh2v15Q7XGbgehAf-8" edge="1">
          <mxGeometry width="160" relative="1" as="geometry">
            <mxPoint x="2480" y="560" as="sourcePoint" />
            <mxPoint x="2493" y="710" as="targetPoint" />
          </mxGeometry>
        </mxCell>
        <mxCell id="KwyV1Xflm9IYI-2QEycQ-10" value="&lt;p style=&quot;margin:0px;margin-top:4px;text-align:center;&quot;&gt;&lt;b&gt;Plant&lt;/b&gt;&lt;/p&gt;&lt;p style=&quot;margin:0px;margin-top:4px;text-align:center;&quot;&gt;&lt;b data-darkreader-inline-bgcolor=&quot;&quot; style=&quot;background-color: initial; --darkreader-inline-bgcolor: initial;&quot;&gt;&amp;lt;&amp;lt;abstract&amp;gt;&amp;gt;&lt;/b&gt;&lt;br&gt;&lt;/p&gt;&lt;hr size=&quot;1&quot;&gt;&lt;p style=&quot;margin:0px;margin-left:4px;&quot;&gt;- health: int&lt;/p&gt;&lt;hr size=&quot;1&quot;&gt;&lt;p style=&quot;border-color: var(--border-color); margin: 0px 0px 0px 4px; --darkreader-inline-border: var(--darkreader-border--border-color);&quot; data-darkreader-inline-border=&quot;&quot;&gt;+ increaseHealth(): void&lt;/p&gt;&lt;p style=&quot;border-color: var(--border-color); margin: 0px 0px 0px 4px; --darkreader-inline-border: var(--darkreader-border--border-color);&quot; data-darkreader-inline-border=&quot;&quot;&gt;+ decreaseHealth(): void&lt;/p&gt;&lt;p style=&quot;border-color: var(--border-color); margin: 0px 0px 0px 4px; --darkreader-inline-border: var(--darkreader-border--border-color);&quot; data-darkreader-inline-border=&quot;&quot;&gt;+ getHealth(): int&lt;/p&gt;&lt;p style=&quot;border-color: var(--border-color); margin: 0px 0px 0px 4px; --darkreader-inline-border: var(--darkreader-border--border-color);&quot; data-darkreader-inline-border=&quot;&quot;&gt;&lt;br data-darkreader-inline-border=&quot;&quot; style=&quot;border-color: var(--border-color); --darkreader-inline-border: var(--darkreader-border--border-color);&quot;&gt;&lt;/p&gt;" style="verticalAlign=top;align=left;overflow=fill;fontSize=12;fontFamily=Helvetica;html=1;whiteSpace=wrap;" parent="1" vertex="1">
          <mxGeometry x="1840" y="660" width="175" height="125" as="geometry" />
        </mxCell>
        <mxCell id="KwyV1Xflm9IYI-2QEycQ-11" value="Extends" style="endArrow=block;endSize=16;endFill=0;html=1;rounded=0;entryX=0.5;entryY=1;entryDx=0;entryDy=0;exitX=0.5;exitY=0;exitDx=0;exitDy=0;" parent="1" source="KwyV1Xflm9IYI-2QEycQ-10" target="KwyV1Xflm9IYI-2QEycQ-1" edge="1">
          <mxGeometry width="160" relative="1" as="geometry">
            <mxPoint x="2020" y="875" as="sourcePoint" />
            <mxPoint x="2318" y="800" as="targetPoint" />
          </mxGeometry>
        </mxCell>
        <mxCell id="A-O5U1eTaCPAdiq7LV7m-1" value="" style="endArrow=block;dashed=1;endFill=0;endSize=12;html=1;rounded=0;exitX=0.5;exitY=1;exitDx=0;exitDy=0;entryX=0.5;entryY=0;entryDx=0;entryDy=0;" parent="1" source="lJiX0_LvJ2jpschvsqrX-2" target="ofoJCh2v15Q7XGbgehAf-12" edge="1">
          <mxGeometry width="160" relative="1" as="geometry">
            <mxPoint x="2503" y="800" as="sourcePoint" />
            <mxPoint x="2370" y="1300" as="targetPoint" />
          </mxGeometry>
        </mxCell>
        <mxCell id="bQtU6IJrlFSjEmVvVzCr-1" value="&lt;p style=&quot;margin:0px;margin-top:4px;text-align:center;&quot;&gt;&lt;b&gt;Basil&lt;/b&gt;&lt;/p&gt;&lt;hr size=&quot;1&quot;&gt;&lt;p style=&quot;margin:0px;margin-left:4px;&quot;&gt;- previousTarget: Entity&lt;/p&gt;&lt;p style=&quot;margin:0px;margin-left:4px;&quot;&gt;- target: Entity&lt;/p&gt;&lt;p style=&quot;margin:0px;margin-left:4px;&quot;&gt;- redhand: Redhand&lt;/p&gt;&lt;hr size=&quot;1&quot;&gt;&lt;p style=&quot;margin:0px;margin-left:4px;&quot;&gt;+ acquireTarget(): Entity&lt;br&gt;+ transform(): boolean&lt;/p&gt;&lt;p style=&quot;margin:0px;margin-left:4px;&quot;&gt;+ executeActivity(): void&lt;/p&gt;&lt;p style=&quot;margin:0px;margin-left:4px;&quot;&gt;+ moveTo(): boolean&lt;/p&gt;&lt;p style=&quot;margin:0px;margin-left:4px;&quot;&gt;+ nextPosition(): Point&lt;/p&gt;&lt;p style=&quot;margin:0px;margin-left:4px;&quot;&gt;&lt;br&gt;&lt;/p&gt;&lt;p data-darkreader-inline-border=&quot;&quot; style=&quot;border-color: var(--border-color); margin: 0px 0px 0px 4px; --darkreader-inline-border: var(--darkreader-border--border-color);&quot;&gt;&lt;br&gt;&lt;/p&gt;" style="verticalAlign=top;align=left;overflow=fill;fontSize=12;fontFamily=Helvetica;html=1;whiteSpace=wrap;" vertex="1" parent="1">
          <mxGeometry x="1855" y="855" width="160" height="170" as="geometry" />
        </mxCell>
        <mxCell id="bQtU6IJrlFSjEmVvVzCr-2" value="Extends" style="endArrow=block;endSize=16;endFill=0;html=1;rounded=0;entryX=0.5;entryY=1;entryDx=0;entryDy=0;exitX=0.5;exitY=0;exitDx=0;exitDy=0;" edge="1" parent="1" source="bQtU6IJrlFSjEmVvVzCr-1" target="KwyV1Xflm9IYI-2QEycQ-10">
          <mxGeometry width="160" relative="1" as="geometry">
            <mxPoint x="1735" y="1050" as="sourcePoint" />
            <mxPoint x="2068" y="810" as="targetPoint" />
          </mxGeometry>
        </mxCell>
        <mxCell id="bQtU6IJrlFSjEmVvVzCr-3" value="" style="endArrow=block;dashed=1;endFill=0;endSize=12;html=1;rounded=0;entryX=0.5;entryY=0;entryDx=0;entryDy=0;exitX=1;exitY=0.5;exitDx=0;exitDy=0;" edge="1" parent="1" source="bQtU6IJrlFSjEmVvVzCr-1">
          <mxGeometry width="160" relative="1" as="geometry">
            <mxPoint x="2433" y="795" as="sourcePoint" />
            <mxPoint x="2883" y="1080" as="targetPoint" />
          </mxGeometry>
        </mxCell>
        <mxCell id="bQtU6IJrlFSjEmVvVzCr-4" value="&lt;p style=&quot;margin:0px;margin-top:4px;text-align:center;&quot;&gt;&lt;b&gt;Bunny&lt;/b&gt;&lt;/p&gt;&lt;hr size=&quot;1&quot;&gt;&lt;p style=&quot;margin:0px;margin-left:4px;&quot;&gt;&lt;br&gt;&lt;/p&gt;&lt;hr size=&quot;1&quot;&gt;&lt;p style=&quot;margin:0px;margin-left:4px;&quot;&gt;+ executeActivity(): void&lt;/p&gt;&lt;p style=&quot;margin:0px;margin-left:4px;&quot;&gt;+ moveTo(): boolean&lt;/p&gt;&lt;p style=&quot;margin:0px;margin-left:4px;&quot;&gt;+ nextPosition(): Point&lt;/p&gt;&lt;p style=&quot;margin:0px;margin-left:4px;&quot;&gt;&lt;br&gt;&lt;/p&gt;" style="verticalAlign=top;align=left;overflow=fill;fontSize=12;fontFamily=Helvetica;html=1;whiteSpace=wrap;" vertex="1" parent="1">
          <mxGeometry x="3020" y="820" width="200" height="105" as="geometry" />
        </mxCell>
        <mxCell id="bQtU6IJrlFSjEmVvVzCr-5" value="Extends" style="endArrow=block;endSize=16;endFill=0;html=1;rounded=0;entryX=0.5;entryY=1;entryDx=0;entryDy=0;exitX=0.5;exitY=0;exitDx=0;exitDy=0;" edge="1" parent="1" source="bQtU6IJrlFSjEmVvVzCr-4" target="KwyV1Xflm9IYI-2QEycQ-1">
          <mxGeometry width="160" relative="1" as="geometry">
            <mxPoint x="3480" y="875" as="sourcePoint" />
            <mxPoint x="2833" y="590" as="targetPoint" />
          </mxGeometry>
        </mxCell>
        <mxCell id="bQtU6IJrlFSjEmVvVzCr-6" value="" style="endArrow=block;dashed=1;endFill=0;endSize=12;html=1;rounded=0;exitX=0.5;exitY=1;exitDx=0;exitDy=0;" edge="1" parent="1" source="bQtU6IJrlFSjEmVvVzCr-4">
          <mxGeometry width="160" relative="1" as="geometry">
            <mxPoint x="3180" y="970" as="sourcePoint" />
            <mxPoint x="2880" y="1070" as="targetPoint" />
          </mxGeometry>
        </mxCell>
        <mxCell id="bQtU6IJrlFSjEmVvVzCr-7" value="" style="endArrow=block;dashed=1;endFill=0;endSize=12;html=1;rounded=0;exitX=0.5;exitY=1;exitDx=0;exitDy=0;" edge="1" parent="1" source="bQtU6IJrlFSjEmVvVzCr-4">
          <mxGeometry width="160" relative="1" as="geometry">
            <mxPoint x="3180" y="970" as="sourcePoint" />
            <mxPoint x="2210" y="1070" as="targetPoint" />
          </mxGeometry>
        </mxCell>
        <mxCell id="bQtU6IJrlFSjEmVvVzCr-8" value="&lt;p style=&quot;margin:0px;margin-top:4px;text-align:center;&quot;&gt;&lt;b&gt;Watermelon&lt;/b&gt;&lt;/p&gt;&lt;hr size=&quot;1&quot;&gt;&lt;p style=&quot;margin:0px;margin-left:4px;&quot;&gt;&lt;br&gt;&lt;/p&gt;&lt;hr size=&quot;1&quot;&gt;&lt;p style=&quot;margin:0px;margin-left:4px;&quot;&gt;+ nextImage(): void&lt;/p&gt;&lt;p style=&quot;margin:0px;margin-left:4px;&quot;&gt;&lt;br&gt;&lt;/p&gt;" style="verticalAlign=top;align=left;overflow=fill;fontSize=12;fontFamily=Helvetica;html=1;whiteSpace=wrap;" vertex="1" parent="1">
          <mxGeometry x="2500" y="660" width="200" height="75" as="geometry" />
        </mxCell>
        <mxCell id="bQtU6IJrlFSjEmVvVzCr-9" value="Extends" style="endArrow=block;endSize=16;endFill=0;html=1;rounded=0;entryX=0.5;entryY=1;entryDx=0;entryDy=0;exitX=0.5;exitY=0;exitDx=0;exitDy=0;" edge="1" parent="1" source="bQtU6IJrlFSjEmVvVzCr-8" target="KwyV1Xflm9IYI-2QEycQ-1">
          <mxGeometry width="160" relative="1" as="geometry">
            <mxPoint x="3560" y="840" as="sourcePoint" />
            <mxPoint x="2833" y="590" as="targetPoint" />
          </mxGeometry>
        </mxCell>
        <mxCell id="bQtU6IJrlFSjEmVvVzCr-10" value="&lt;p style=&quot;margin:0px;margin-top:4px;text-align:center;&quot;&gt;&lt;b&gt;Redhand&lt;/b&gt;&lt;/p&gt;&lt;hr size=&quot;1&quot;&gt;&lt;p style=&quot;margin:0px;margin-left:4px;&quot;&gt;&lt;br&gt;&lt;/p&gt;&lt;hr size=&quot;1&quot;&gt;&lt;p style=&quot;margin:0px;margin-left:4px;&quot;&gt;+ getExists(): boolean&lt;/p&gt;&lt;p style=&quot;margin:0px;margin-left:4px;&quot;&gt;+ setExists(): void&lt;/p&gt;&lt;p style=&quot;margin:0px;margin-left:4px;&quot;&gt;+ executeActivity(): void&lt;/p&gt;&lt;p style=&quot;margin:0px;margin-left:4px;&quot;&gt;+ moveTo(): boolean&lt;/p&gt;&lt;p style=&quot;margin:0px;margin-left:4px;&quot;&gt;+ nextPosition(): Point&lt;/p&gt;&lt;p style=&quot;margin:0px;margin-left:4px;&quot;&gt;&lt;br&gt;&lt;/p&gt;" style="verticalAlign=top;align=left;overflow=fill;fontSize=12;fontFamily=Helvetica;html=1;whiteSpace=wrap;" vertex="1" parent="1">
          <mxGeometry x="3260" y="820" width="200" height="130" as="geometry" />
        </mxCell>
        <mxCell id="bQtU6IJrlFSjEmVvVzCr-11" value="" style="endArrow=block;dashed=1;endFill=0;endSize=12;html=1;rounded=0;exitX=0.5;exitY=1;exitDx=0;exitDy=0;" edge="1" parent="1" source="bQtU6IJrlFSjEmVvVzCr-10">
          <mxGeometry width="160" relative="1" as="geometry">
            <mxPoint x="3260" y="935" as="sourcePoint" />
            <mxPoint x="2880" y="1070" as="targetPoint" />
          </mxGeometry>
        </mxCell>
        <mxCell id="bQtU6IJrlFSjEmVvVzCr-13" value="" style="endArrow=block;dashed=1;endFill=0;endSize=12;html=1;rounded=0;exitX=0.5;exitY=1;exitDx=0;exitDy=0;" edge="1" parent="1" source="bQtU6IJrlFSjEmVvVzCr-10">
          <mxGeometry width="160" relative="1" as="geometry">
            <mxPoint x="3260" y="935" as="sourcePoint" />
            <mxPoint x="2200" y="1070" as="targetPoint" />
          </mxGeometry>
        </mxCell>
        <mxCell id="bQtU6IJrlFSjEmVvVzCr-14" value="Extends" style="endArrow=block;endSize=16;endFill=0;html=1;rounded=0;entryX=0.5;entryY=1;entryDx=0;entryDy=0;exitX=0.5;exitY=0;exitDx=0;exitDy=0;" edge="1" parent="1" source="bQtU6IJrlFSjEmVvVzCr-10" target="KwyV1Xflm9IYI-2QEycQ-1">
          <mxGeometry width="160" relative="1" as="geometry">
            <mxPoint x="3560" y="840" as="sourcePoint" />
            <mxPoint x="2833" y="590" as="targetPoint" />
          </mxGeometry>
        </mxCell>
      </root>
    </mxGraphModel>
  </diagram>
</mxfile>
